<svg xmlns="http://www.w3.org/2000/svg" width="25.915" height="25.843" viewBox="0 0 25.915 25.843">
  <g id="cerrar-sesion" transform="translate(-921.545 -163.642)">
    <path id="logout" d="M252.716,121.826v2.019a4.038,4.038,0,0,1-4.038,4.038h-10.14a4.038,4.038,0,0,1-4.038-4.038V106.078a4.038,4.038,0,0,1,4.038-4.038h10.17a4.038,4.038,0,0,1,4.038,4.038V108.1a1,1,0,0,1-1,1,1.017,1.017,0,0,1-1.017-1v-2.019a2,2,0,0,0-2.019-2.019H238.54a2,2,0,0,0-2.019,2.019v17.767a2.019,2.019,0,0,0,2.019,2.064h10.17a2.019,2.019,0,0,0,2.019-2.019v-2.019a1.032,1.032,0,0,1,1.017-1.017,1.017,1.017,0,0,1,1,1.017Zm6.88-8.6-2.258-2.273a.987.987,0,0,0-1.5,0,1.017,1.017,0,0,0,0,1.421l1.69,1.57H245.4a1.017,1.017,0,1,0,0,2.019h12.129l-1.615,1.6a1.032,1.032,0,0,0,0,1.5,1.017,1.017,0,0,0,1.5,0l2.273-2.258a2.557,2.557,0,0,0,0-3.574Z" transform="translate(687.045 61.602)" fill="#707070"/>
  </g>
</svg>
