<svg xmlns="http://www.w3.org/2000/svg" width="29.91" height="29.91" viewBox="0 0 29.91 29.91">
  <g id="Grupo_17" data-name="Grupo 17" transform="translate(-1288.702 -83.106)">
    <path id="check" d="M494.955,48.19A14.955,14.955,0,1,0,509.91,63.145,14.955,14.955,0,0,0,494.955,48.19Zm7.478,11.785-8.106,8.106a1.271,1.271,0,0,1-1.765,0l-4.053-4.053a1.248,1.248,0,1,1,1.765-1.765l3.186,3.171,7.223-7.224a1.241,1.241,0,0,1,1.765,0,1.256,1.256,0,0,1,0,1.735Z" transform="translate(808.702 34.916)" fill="#67bb8c"/>
  </g>
</svg>
