<svg xmlns="http://www.w3.org/2000/svg" width="25.427" height="25.425" viewBox="0 0 25.427 25.425">
  <g id="recarga-telefonica" transform="translate(-925.072 -87.442)">
    <g id="phone" transform="translate(925.068 87.443)">
      <path id="Trazado_122" data-name="Trazado 122" d="M255.123,76.514a7.074,7.074,0,0,1-2.423-.434,25.708,25.708,0,0,1-15.4-15.4,6.8,6.8,0,0,1-.359-3.455,7.209,7.209,0,0,1,3.694-5.279,7.1,7.1,0,0,1,3.4-.852.793.793,0,0,1,.778.628l1.241,5.818a.793.793,0,0,1-.224.733L243.686,60.4a20.938,20.938,0,0,0,9.272,9.272l2.124-2.124a.793.793,0,0,1,.733-.209l5.818,1.241a.763.763,0,0,1,.628.763,7.089,7.089,0,0,1-.837,3.395,7.179,7.179,0,0,1-5.279,3.649,5.713,5.713,0,0,1-1.017,0ZM243.4,52.72a5.563,5.563,0,0,0-4.831,6.162,6.341,6.341,0,0,0,.284,1.256,24.123,24.123,0,0,0,14.462,14.447,5.549,5.549,0,0,0,7.119-3.35,5.127,5.127,0,0,0,.3-1.256L255.915,68.9,253.7,71.13a.808.808,0,0,1-.9.165,22.433,22.433,0,0,1-10.768-10.768.763.763,0,0,1,.15-.9l2.213-2.243Z" transform="translate(-236.856 -51.09)" fill="#707070"/>
      <path id="Trazado_123" data-name="Trazado 123" d="M257.527,64.6a.793.793,0,0,1-.793-.793h0a11.142,11.142,0,0,0-11.112-11.127.778.778,0,0,1-.793-.793.793.793,0,0,1,.793-.793h0A12.727,12.727,0,0,1,258.335,63.8h0a.793.793,0,0,1-.808.793Z" transform="translate(-232.904 -51.09)" fill="#707070"/>
      <path id="Trazado_124" data-name="Trazado 124" d="M254.357,63.539a.793.793,0,0,1-.793-.793h0a7.941,7.941,0,0,0-7.941-7.941.793.793,0,0,1,0-1.585,9.527,9.527,0,0,1,9.527,9.527.793.793,0,0,1-.793.793Z" transform="translate(-232.904 -50.034)" fill="#707070"/>
      <path id="Trazado_125" data-name="Trazado 125" d="M251.171,62.489a.793.793,0,0,1-.793-.793h0a4.771,4.771,0,0,0-4.756-4.771.778.778,0,0,1-.793-.793.793.793,0,0,1,.793-.793,6.386,6.386,0,0,1,6.356,6.356.793.793,0,0,1-.808.793Z" transform="translate(-232.904 -48.984)" fill="#707070"/>
    </g>
  </g>
</svg>
