<svg xmlns="http://www.w3.org/2000/svg" width="23.329" height="22.559" viewBox="0 0 23.329 22.559">
  <g id="transferencia-bancaria" transform="translate(-818.66 -88.941)">
    <g id="transfe" transform="translate(818.66 88.939)">
      <path id="Trazado_107" data-name="Trazado 107" d="M165.712,63.812V61.7a5.982,5.982,0,0,1,2.378-5.055,12.667,12.667,0,0,1,5.653-2.527,18.4,18.4,0,0,1,5.354-.284,1.136,1.136,0,0,1,.4,0,.823.823,0,0,1,.538.972.852.852,0,0,1-.972.628,15.524,15.524,0,0,0-5.055.284,10.633,10.633,0,0,0-4.875,2.228,7,7,0,0,0-1.271,1.5,3.44,3.44,0,0,0,.269,4.038,7.9,7.9,0,0,0,3.694,2.6,14.956,14.956,0,0,0,12.2-.523,7.254,7.254,0,0,0,2.512-1.944,3.574,3.574,0,0,0,.329-4.158,1.751,1.751,0,0,1-.209-.449.837.837,0,0,1,.688-.957.852.852,0,0,1,.838.389,5.264,5.264,0,0,1,.852,2.707v5.563a4.92,4.92,0,0,1-1.137,2.827,9.676,9.676,0,0,1-4.487,3.2,17.274,17.274,0,0,1-7.388,1.032,15.539,15.539,0,0,1-6.311-1.78,7.672,7.672,0,0,1-3.574-3.694,4.352,4.352,0,0,1-.419-2.049C165.727,65.427,165.712,64.589,165.712,63.812Zm1.66,1.346V66.1a3.619,3.619,0,0,0,.867,2.438,7.134,7.134,0,0,0,2.378,1.944,14.955,14.955,0,0,0,10.8,1.047,10.633,10.633,0,0,0,4.173-1.959,4.307,4.307,0,0,0,1.78-4.367,1.4,1.4,0,0,1-.15.15,9.124,9.124,0,0,1-2.288,1.63,16.63,16.63,0,0,1-12.323,1.062,11.217,11.217,0,0,1-5.055-2.812.389.389,0,0,0-.179-.075Z" transform="translate(-165.706 -51.264)" fill="#707070"/>
      <path id="Trazado_108" data-name="Trazado 108" d="M173.734,64.539h-1.5a.823.823,0,0,1-.9-.763.852.852,0,0,1,.778-.912h1.675V61.219a2.557,2.557,0,0,1-1.974-.987,2.587,2.587,0,0,1-.508-1.675,2.557,2.557,0,0,1,2.423-2.288.838.838,0,0,1,.9-.808c.419,0,.673.269.823.823h1.5a.852.852,0,0,1,.957.718.838.838,0,0,1-.7.957h-1.765v1.63a2.5,2.5,0,0,1,1.944.987,2.363,2.363,0,0,1,.523,1.69,2.5,2.5,0,0,1-2.438,2.333c-.254.643-.494.852-.927.823S173.839,65.092,173.734,64.539Zm1.7-1.675a.808.808,0,0,0,.823-.838h0a.808.808,0,0,0-.823-.778Zm-1.69-3.32V57.9a.793.793,0,0,0-.808.793.823.823,0,0,0,.808.838Z" transform="translate(-162.93 -50.42)" fill="#707070"/>
      <path id="Trazado_109" data-name="Trazado 109" d="M178.824,54.947l-1,1a.838.838,0,0,1-1.181.1.852.852,0,0,1-.1-1.2l.09-.09L179,52.389a.823.823,0,0,1,1.167-.1.4.4,0,0,1,.12.1l2.378,2.378a.823.823,0,0,1,0,1.167h0a.838.838,0,0,1-1.181,0h0l-.927-.927h0v4.487a.838.838,0,1,1-1.66.135V55.291a1.824,1.824,0,0,1-.075-.344Z" transform="translate(-160.437 -52.09)" fill="#707070"/>
    </g>
  </g>
</svg>
