<?xml version="1.0" encoding="utf-8"?>
<!-- Generator: Adobe Illustrator 24.2.1, SVG Export Plug-In . SVG Version: 6.00 Build 0)  -->
<svg version="1.1" id="Capa_1" xmlns="http://www.w3.org/2000/svg" xmlns:xlink="http://www.w3.org/1999/xlink" x="0px" y="0px"
	 viewBox="0 0 477.9 477.9" style="enable-background:new 0 0 477.9 477.9;" xml:space="preserve">
<style type="text/css">
	.st0{fill:#FFFFFF;}
</style>
<g>
	<g>
		<path class="st0" d="M238.9,0C107,0,0,107,0,238.9s107,238.9,238.9,238.9s238.9-107,238.9-238.9C477.7,107,370.8,0.1,238.9,0z
			 M238.9,443.7c-113.1,0-204.8-91.7-204.8-204.8S125.8,34.1,238.9,34.1s204.8,91.7,204.8,204.8C443.6,352,352,443.6,238.9,443.7z"
			/>
	</g>
</g>
<g>
	<g>
		<path class="st0" d="M370,141.5c-6.6-6.4-17.1-6.4-23.7,0l0,0L187.7,300.1l-56.2-56.2c-6.5-6.8-17.4-7-24.1-0.4
			c-6.8,6.5-7,17.4-0.4,24.1c0.1,0.1,0.3,0.3,0.4,0.4l68.3,68.3c6.7,6.7,17.5,6.7,24.1,0l170.7-170.7
			C377,158.9,376.8,148.1,370,141.5z"/>
	</g>
</g>
</svg>
