<svg xmlns="http://www.w3.org/2000/svg" width="33.701" height="33.802" viewBox="0 0 33.701 33.802">
  <g id="ajustes" transform="translate(-822.062 -159.165)">
    <g id="settings" transform="translate(822.315 159.424)">
      <g id="Grupo_76" data-name="Grupo 76" transform="translate(0 11.097)">
        <g id="Grupo_75" data-name="Grupo 75">
          <path id="Trazado_161" data-name="Trazado 161" d="M188.609,114.9H188a.553.553,0,0,1-.523-.359,1.536,1.536,0,0,0-.209-.523.523.523,0,0,1,.1-.613l.434-.434a1.66,1.66,0,0,0,0-2.363l-1.5-1.5a1.645,1.645,0,0,0-2.348,0l-.434.434a.523.523,0,0,1-.613.1l-.523-.224a.509.509,0,0,1-.359-.508v-.61a1.675,1.675,0,0,0-1.675-1.66h-2.21a1.675,1.675,0,0,0-1.675,1.66h0v.613a.523.523,0,0,1-.359.508l-.523.224a.568.568,0,0,1-.613-.1l-.434-.449a1.675,1.675,0,0,0-2.348,0l-1.57,1.585a1.675,1.675,0,0,0,0,2.348l.434.434a.553.553,0,0,1,.1.628,5.453,5.453,0,0,0-.209.523.583.583,0,0,1-.523.359h-.613a1.66,1.66,0,0,0-1.66,1.66v2.213a1.66,1.66,0,0,0,1.66,1.66h.613a.553.553,0,0,1,.508.359l.224.523a.553.553,0,0,1-.1.628l-.434.434a1.645,1.645,0,0,0,0,2.348l1.5,1.57a1.69,1.69,0,0,0,2.363,0l.434-.434a.553.553,0,0,1,.613-.12l.523.224a.538.538,0,0,1,.359.523v.6a1.675,1.675,0,0,0,1.675,1.675H180.3a1.675,1.675,0,0,0,1.66-1.675h0v-.6a.568.568,0,0,1,.359-.523l.523-.209a.553.553,0,0,1,.628.1l.434.434a1.675,1.675,0,0,0,2.348,0l1.5-1.57a1.675,1.675,0,0,0,0-2.348l-.434-.434a.523.523,0,0,1-.1-.613c0-.179.15-.344.209-.523a.523.523,0,0,1,.523-.359h.613a1.675,1.675,0,0,0,1.66-1.675h0V116.63a1.675,1.675,0,0,0-1.66-1.675Zm.553,3.888a.553.553,0,0,1-.553.553H188a1.675,1.675,0,0,0-1.5,1.077,1.232,1.232,0,0,1-.194.464,1.675,1.675,0,0,0,.329,1.854l.434.434a.553.553,0,0,1,0,.793h0l-1.5,1.5a.583.583,0,0,1-.793,0h0l-.434-.434a1.675,1.675,0,0,0-1.869-.344l-.449.194a1.69,1.69,0,0,0-1.077,1.5v.613a.553.553,0,0,1-.553.553h-2.213a.553.553,0,0,1-.553-.553h0v-.613a1.69,1.69,0,0,0-1.077-1.5l-.464-.194a1.675,1.675,0,0,0-1.854.329l-.434.434a.553.553,0,0,1-.793,0h0l-1.5-1.5a.583.583,0,0,1,0-.793h0l.434-.434a1.645,1.645,0,0,0,.344-1.854,4.315,4.315,0,0,1-.194-.464,1.69,1.69,0,0,0-1.5-1.077h-.613a.553.553,0,0,1-.553-.553h0V116.56a.553.553,0,0,1,.553-.553h.613a1.7,1.7,0,0,0,1.5-1.077,1.233,1.233,0,0,1,.194-.464,1.645,1.645,0,0,0-.344-1.854l-.434-.434a.583.583,0,0,1,0-.793h0l1.5-1.5a.553.553,0,0,1,.778,0h0l.434.434a1.645,1.645,0,0,0,1.854.344l.464-.194a1.69,1.69,0,0,0,1.077-1.5v-.613a.553.553,0,0,1,.553-.553h2.213a.553.553,0,0,1,.553.553h0v.613a1.675,1.675,0,0,0,1.077,1.5l.464.194a1.675,1.675,0,0,0,1.855-.329l.434-.434a.553.553,0,0,1,.793,0l1.5,1.5a.553.553,0,0,1,0,.793h0l-.434.434a1.675,1.675,0,0,0-.329,1.854,4.313,4.313,0,0,1,.194.464,1.675,1.675,0,0,0,1.5,1.077h.6a.553.553,0,0,1,.568.553h0v2.213Z" transform="translate(-168.15 -106.64)" fill="#707070" stroke="#707070" stroke-width="0.5"/>
        </g>
      </g>
      <g id="Grupo_78" data-name="Grupo 78" transform="translate(6.178 17.303)">
        <g id="Grupo_77" data-name="Grupo 77">
          <path id="Trazado_162" data-name="Trazado 162" d="M182.1,115.4a3.666,3.666,0,0,0,0-.4.861.861,0,0,0-.075-.419c-.075-.135,0-.179,0-.269a1.66,1.66,0,0,0-.1-.329l-.09-.239c-.075-.179-.15-.344-.239-.523h0a4.831,4.831,0,0,0-.494-.733h0c-.09-.09-.15-.179-.239-.254l-.135-.135-.165-.15-.209-.165h-.09a4.965,4.965,0,0,0-2.991-.987h-.718a2.992,2.992,0,0,0-.523.09,5,5,0,0,0,0,9.676h0l.583.12h2.243l.224-.09.224-.09a2.238,2.238,0,0,1,.269-.135h0A6.52,6.52,0,0,0,181,119.33a1.36,1.36,0,0,0,.3-.359,5.982,5.982,0,0,0,.837-2.288v-1.092a1.049,1.049,0,0,1-.032-.191Zm-1.107.359v.538a3.9,3.9,0,0,1-1.944,2.722l-.209.1h0a4.683,4.683,0,0,1-1.017.3h-1.137l-.449-.09a3.888,3.888,0,0,1,0-7.478h0a4.217,4.217,0,0,1,.972-.12h1.077a3.828,3.828,0,0,1,.837.359h.135l.254.179.135.09.314.284.1.12.194.224.12.15.164.254.075.135c0,.135.135.269.194.4a1.143,1.143,0,0,1,0,.165,1.242,1.242,0,0,1,.09.314v.164a.949.949,0,0,0,.075.449v.508Z" transform="translate(-172.281 -110.79)" fill="#707070" stroke="#707070" stroke-width="0.5"/>
        </g>
      </g>
      <g id="Grupo_80" data-name="Grupo 80" transform="translate(5.995)">
        <g id="Grupo_79" data-name="Grupo 79">
          <path id="Trazado_163" data-name="Trazado 163" d="M197.7,110.855h-1.73a.553.553,0,0,1-.523-.359,9.474,9.474,0,0,0-.628-1.5.553.553,0,0,1,.12-.628l1.226-1.241a1.645,1.645,0,0,0,0-2.348l-2.348-2.348a1.66,1.66,0,0,0-2.363,0l-1.226,1.226a.553.553,0,0,1-.628.1,11.009,11.009,0,0,0-1.5-.613.523.523,0,0,1-.359-.523v-1.75a1.675,1.675,0,0,0-1.675-1.66h-3.32a1.66,1.66,0,0,0-1.66,1.66v1.75a.583.583,0,0,1-.374.523,10.827,10.827,0,0,0-1.5.613.553.553,0,0,1-.628-.1l-1.241-1.226a1.645,1.645,0,0,0-2.348,0l-2.363,2.348a1.675,1.675,0,0,0,0,2.348l1.81,1.825a.568.568,0,0,0,.793,0,.553.553,0,0,0,0-.763l-1.825-1.825a.553.553,0,0,1,0-.793h0l2.348-2.348a.553.553,0,0,1,.778,0h0l1.226,1.241a1.66,1.66,0,0,0,1.914.314,8.974,8.974,0,0,1,1.361-.568,1.66,1.66,0,0,0,1.122-1.57V100.9a.553.553,0,0,1,.553-.553h3.32a.568.568,0,0,1,.568.553h0v1.75a1.615,1.615,0,0,0,1.122,1.57,9.71,9.71,0,0,1,1.361.568,1.66,1.66,0,0,0,1.9-.314l1.241-1.241a.538.538,0,0,1,.778,0h0l2.348,2.363a.538.538,0,0,1,0,.778l-1.226,1.241a1.615,1.615,0,0,0-.314,1.9,11.962,11.962,0,0,1,.568,1.361,1.63,1.63,0,0,0,1.57,1.122h1.735a.553.553,0,0,1,.553.553h0v3.335a.553.553,0,0,1-.553.553h-1.735a1.645,1.645,0,0,0-1.57,1.122,10.873,10.873,0,0,1-.568,1.361,1.63,1.63,0,0,0,.314,1.9l1.241,1.241a.583.583,0,0,1,0,.793h0L193,125.2a.538.538,0,0,1-.778,0l-1.825-1.81a.553.553,0,0,0-.793,0,.538.538,0,0,0,0,.763h0l1.825,1.825a1.69,1.69,0,0,0,2.363,0l2.348-2.363a1.675,1.675,0,0,0,0-2.348L194.9,120.03a.553.553,0,0,1-.1-.628,9.311,9.311,0,0,0,.628-1.5.553.553,0,0,1,.523-.374h1.735a1.675,1.675,0,0,0,1.675-1.66V112.53a1.675,1.675,0,0,0-1.66-1.675Z" transform="translate(-172.159 -99.22)" fill="#707070" stroke="#707070" stroke-width="0.5"/>
        </g>
      </g>
      <g id="Grupo_82" data-name="Grupo 82" transform="translate(12.971 7.718)">
        <g id="Grupo_81" data-name="Grupo 81">
          <path id="Trazado_164" data-name="Trazado 164" d="M187.183,106.488a7.223,7.223,0,0,0-10.2,0,.555.555,0,1,0,.793.778A6.1,6.1,0,1,1,186.6,115.7l-.135.135h0a.568.568,0,0,0,0,.793.553.553,0,0,0,.778,0h0a7.224,7.224,0,0,0-.06-10.14Z" transform="translate(-176.823 -104.381)" fill="#707070" stroke="#707070" stroke-width="0.5"/>
        </g>
      </g>
    </g>
  </g>
</svg>
