<svg xmlns="http://www.w3.org/2000/svg" width="25.835" height="31.795" viewBox="0 0 25.835 31.795">
  <g id="Grupo_12" data-name="Grupo 12" transform="translate(-1102.29 -158.946)">
    <g id="bell" transform="translate(1102.29 158.946)">
      <g id="Grupo_10" data-name="Grupo 10" transform="translate(1.876 4.427)">
        <g id="Grupo_9" data-name="Grupo 9">
          <path id="Trazado_97" data-name="Trazado 97" d="M367.079,101.86a10.469,10.469,0,0,0-10.469,10.469v11.1h2.154v-11.1a8.285,8.285,0,1,1,16.571,0v11.1h2.154v-11.1a10.469,10.469,0,0,0-10.409-10.469Z" transform="translate(-356.61 -101.86)" fill="#717070"/>
        </g>
      </g>
      <g id="Grupo_12-2" data-name="Grupo 12" transform="translate(0 24.863)">
        <g id="Grupo_11" data-name="Grupo 11">
          <path id="Trazado_98" data-name="Trazado 98" d="M379.366,115.532H356.319a1.092,1.092,0,0,0,0,2.169h23.046a1.092,1.092,0,1,0,0-2.169Z" transform="translate(-355.355 -115.525)" fill="#717070"/>
        </g>
      </g>
      <g id="Grupo_14" data-name="Grupo 14" transform="translate(9.025)">
        <g id="Grupo_13" data-name="Grupo 13">
          <path id="Trazado_99" data-name="Trazado 99" d="M364.71,98.9a3.32,3.32,0,1,0,3.32,3.305h0a3.32,3.32,0,0,0-3.32-3.305Zm0,4.487a1.152,1.152,0,1,1,1.152-1.152h0a1.152,1.152,0,0,1-1.152,1.122Z" transform="translate(-361.39 -98.9)" fill="#717070"/>
        </g>
      </g>
      <g id="Grupo_16" data-name="Grupo 16" transform="translate(8.442 25.963)">
        <g id="Grupo_15" data-name="Grupo 15">
          <path id="Trazado_100" data-name="Trazado 100" d="M366.773,116.26v1.869a1.795,1.795,0,1,1-3.589,0V116.26H361v1.869a3.963,3.963,0,1,0,7.926,0h0V116.26Z" transform="translate(-361 -116.26)" fill="#717070"/>
        </g>
      </g>
    </g>
    <circle id="Elipse_4" data-name="Elipse 4" cx="5.459" cy="5.459" r="5.459" transform="translate(1117.207 163.043)" fill="#e52421"/>
  </g>
</svg>
