<svg xmlns="http://www.w3.org/2000/svg" width="24.975" height="31.795" viewBox="0 0 24.975 31.795">
  <g id="Grupo_11" data-name="Grupo 11" transform="translate(-1056.705 -158.931)">
    <g id="bell" transform="translate(1056.705 158.931)">
      <g id="Grupo_10" data-name="Grupo 10" transform="translate(1.877 4.427)">
        <g id="Grupo_9" data-name="Grupo 9">
          <path id="Trazado_97" data-name="Trazado 97" d="M336.6,101.85a10.469,10.469,0,0,0-10.469,10.469V123.4h2.154V112.319a8.285,8.285,0,0,1,16.571,0V123.4h2.154V112.319A10.469,10.469,0,0,0,336.6,101.85Z" transform="translate(-326.13 -101.85)" fill="#717070"/>
        </g>
      </g>
      <g id="Grupo_12" data-name="Grupo 12" transform="translate(0 24.871)">
        <g id="Grupo_11-2" data-name="Grupo 11">
          <path id="Trazado_98" data-name="Trazado 98" d="M348.886,115.52H325.839a1.092,1.092,0,0,0,0,2.169h23.046a1.092,1.092,0,0,0,0-2.169Z" transform="translate(-324.875 -115.52)" fill="#717070"/>
        </g>
      </g>
      <g id="Grupo_14" data-name="Grupo 14" transform="translate(9.055)">
        <g id="Grupo_13" data-name="Grupo 13">
          <path id="Trazado_99" data-name="Trazado 99" d="M334.22,98.89a3.305,3.305,0,1,0,3.32,3.305h0a3.335,3.335,0,0,0-3.32-3.305Zm0,4.487a1.152,1.152,0,1,1,1.152-1.152h0a1.167,1.167,0,0,1-1.152,1.122Z" transform="translate(-330.93 -98.89)" fill="#717070"/>
        </g>
      </g>
      <g id="Grupo_16" data-name="Grupo 16" transform="translate(8.457 25.948)">
        <g id="Grupo_15" data-name="Grupo 15">
          <path id="Trazado_100" data-name="Trazado 100" d="M336.288,116.24v1.884a1.795,1.795,0,0,1-3.589,0V116.24H330.53v1.884a3.963,3.963,0,1,0,7.926,0h0V116.24Z" transform="translate(-330.53 -116.24)" fill="#717070"/>
        </g>
      </g>
    </g>
  </g>
</svg>
