<svg xmlns="http://www.w3.org/2000/svg" width="27.668" height="27.668" viewBox="0 0 27.668 27.668">
  <g id="ayuda" transform="translate(-874.746 -161.548)">
    <g id="Grupo_84" data-name="Grupo 84" transform="translate(874.747 161.548)">
      <g id="Grupo_83" data-name="Grupo 83">
        <path id="Trazado_165" data-name="Trazado 165" d="M226.825,104.693a13.834,13.834,0,1,0,0,19.562,13.834,13.834,0,0,0,0-19.562Zm-9.781,22a12.219,12.219,0,1,1,12.2-12.219h0A12.219,12.219,0,0,1,217,126.692Z" transform="translate(-203.209 -100.64)" fill="#707070"/>
      </g>
    </g>
    <g id="Grupo_86" data-name="Grupo 86" transform="translate(885.547 165.87)">
      <g id="Grupo_85" data-name="Grupo 85">
        <path id="Trazado_166" data-name="Trazado 166" d="M213.421,103.53a2.991,2.991,0,1,0,2.991,2.991h0a2.991,2.991,0,0,0-2.991-2.991Zm0,4.322a1.346,1.346,0,1,1,1.346-1.346h0a1.346,1.346,0,0,1-1.346,1.346Z" transform="translate(-210.43 -103.53)" fill="#707070"/>
      </g>
    </g>
    <g id="Grupo_88" data-name="Grupo 88" transform="translate(884.754 173.437)">
      <g id="Grupo_87" data-name="Grupo 87">
        <path id="Trazado_167" data-name="Trazado 167" d="M216.391,118.311V108.59H209.9V110.2h1.077v8.106H209.9v1.63h7.627v-1.63Zm-1.63,0h-2.154V110.2h2.154Z" transform="translate(-209.9 -108.59)" fill="#707070"/>
      </g>
    </g>
  </g>
</svg>
