<svg xmlns="http://www.w3.org/2000/svg" width="35.07" height="28.357" viewBox="0 0 35.07 28.357">
    <g>
        <path d="M34.042 59.822a1.028 1.028 0 1 0 0-2.055H31.66a9.718 9.718 0 0 0-.539-2.329h2.921a1.028 1.028 0 1 0 0-2.055h-3.963a9.792 9.792 0 0 0-17.906 4.432 9.8 9.8 0 0 0-7.182 4.335H1.027a1.028 1.028 0 0 0 0 2.055h2.922a9.718 9.718 0 0 0-.539 2.329H1.027a1.028 1.028 0 1 0 0 2.055H3.41a9.718 9.718 0 0 0 .539 2.329H1.027a1.028 1.028 0 1 0 0 2.055h3.964A9.792 9.792 0 0 0 22.9 68.541a9.8 9.8 0 0 0 7.182-4.335h3.963a1.028 1.028 0 0 0 0-2.055h-2.924a9.718 9.718 0 0 0 .539-2.329zM13.151 75.3a7.74 7.74 0 1 1 7.74-7.74 7.749 7.749 0 0 1-7.74 7.74zm8.767-19.864a3.356 3.356 0 1 1-.649 6.65 9.875 9.875 0 0 0-2.645-2.645 3.358 3.358 0 0 1 3.295-4.002zm.967 11.036a9.715 9.715 0 0 0-.536-2.28 5.414 5.414 0 1 0-5.831-5.831 9.718 9.718 0 0 0-2.28-.536 7.74 7.74 0 1 1 8.646 8.646z" data-name="Path 205" transform="translate(0 -49)"/>
        <g data-name="Group 146">
            <path d="M14.292 66.557a7.325 7.325 0 0 1-1.765-.813.4.4 0 0 1-.039-.316.572.572 0 0 1 .365-.452 1.241 1.241 0 0 1 1.095.152 1.027 1.027 0 0 0 1.389-1.513 3.345 3.345 0 0 0-1.157-.624v-.085a1.028 1.028 0 1 0-2.055 0v.149a2.574 2.574 0 0 0-.866 4.307 8.575 8.575 0 0 0 2.347 1.133.686.686 0 0 1 .515.82.975.975 0 0 1-.976.829 1.822 1.822 0 0 1-1.348-.348 1.027 1.027 0 0 0-1.125 1.719 3.72 3.72 0 0 0 1.453.618v.1a1.028 1.028 0 1 0 2.055 0v-.215a2.886 2.886 0 0 0 .112-5.461z" data-name="Path 206" transform="translate(0 -49)"/>
        </g>
    </g>
</svg>
