<svg xmlns="http://www.w3.org/2000/svg" width="26.592" height="19.955" viewBox="0 0 26.592 19.955">
  <g id="correo-electronico" transform="translate(-776.492 -90.178)">
    <path id="email" d="M161.618,52.92H139.993a2.483,2.483,0,0,0-2.483,2.5V70.373a2.483,2.483,0,0,0,2.483,2.5h21.626a2.483,2.483,0,0,0,2.483-2.5V55.418a2.483,2.483,0,0,0-2.483-2.5Zm0,1.66a.808.808,0,0,1,.314,0L150.8,64.211l-11.067-9.557a.808.808,0,0,1,.314,0Zm0,16.63H139.993a.838.838,0,0,1-.823-.838V56.4l11.037,9.616a.823.823,0,0,0,1.077,0l11.1-9.616V70.373a.838.838,0,0,1-.763.838Z" transform="translate(638.982 37.26)" fill="#707070"/>
  </g>
</svg>
