<svg xmlns="http://www.w3.org/2000/svg" width="35.681" height="19.948" viewBox="0 0 35.681 19.948">
  <g id="efectivo" transform="translate(-865.688 -90.18)">
    <g id="cash" transform="translate(865.686 90.18)">
      <g id="Grupo_22" data-name="Grupo 22">
        <g id="Grupo_21" data-name="Grupo 21">
          <path id="Trazado_115" data-name="Trazado 115" d="M232.116,52.92H200.709a.718.718,0,0,0-.7.718v2.139H197.87a.7.7,0,0,0-.718.7V72.168a.7.7,0,0,0,.718.7h31.406a.718.718,0,0,0,.718-.7V70.029h2.139a.718.718,0,0,0,.7-.718V53.638a.718.718,0,0,0-.718-.718Zm-3.559,18.53H198.646V57.2h1.5V69.311a.718.718,0,0,0,.7.718h27.8Zm2.842-2.856H201.412V54.341h29.911Z" transform="translate(-197.15 -52.92)" fill="#707070"/>
          <path id="Trazado_116" data-name="Trazado 116" d="M201.718,62.946h2.857a.75.75,0,0,0,0-1.5h-2.857a.75.75,0,0,0,0,1.5Z" transform="translate(-195.257 -48.693)" fill="#707070"/>
          <path id="Trazado_117" data-name="Trazado 117" d="M216.968,56.276h2.842a.75.75,0,1,0,0-1.5h-2.842a.75.75,0,0,0,0,1.5Z" transform="translate(-187.7 -51.998)" fill="#707070"/>
          <path id="Trazado_118" data-name="Trazado 118" d="M210.043,62.9a.718.718,0,1,0-1.421,0,2.812,2.812,0,0,0,2.139,2.752v.808a.718.718,0,0,0,.7.718.733.733,0,0,0,.718-.718v-.808a2.841,2.841,0,0,0,2.049-3.47,2.9,2.9,0,0,0-2.049-2.049V57.4a1.5,1.5,0,0,1,.7,1.226.75.75,0,1,0,1.5,0,2.871,2.871,0,0,0-2.2-2.767v-.793a.718.718,0,0,0-.718-.718.7.7,0,0,0-.7.718h0v.793a2.857,2.857,0,0,0-2.049,3.485,2.8,2.8,0,0,0,2.049,2.034V64.13a1.406,1.406,0,0,1-.718-1.226Zm2.857,0a1.5,1.5,0,0,1-.718,1.226V61.663A1.5,1.5,0,0,1,212.9,62.9Zm-2.857-4.277a1.5,1.5,0,0,1,.718-1.241v2.423a1.406,1.406,0,0,1-.718-1.226Z" transform="translate(-191.469 -52.211)" fill="#707070"/>
        </g>
      </g>
    </g>
  </g>
</svg>
