<svg xmlns="http://www.w3.org/2000/svg" width="29.91" height="29.91" viewBox="0 0 29.91 29.91">
  <g id="Grupo_16" data-name="Grupo 16" transform="translate(-1325.942 -83.106)">
    <path id="remove" d="M519.855,48.19a14.955,14.955,0,1,0,14.956,14.955A14.955,14.955,0,0,0,519.855,48.19Zm5.5,18.694a1.248,1.248,0,1,1-1.765,1.765l-3.739-3.739-3.739,3.739a1.248,1.248,0,1,1-1.765-1.765l3.739-3.739-3.739-3.739a1.256,1.256,0,0,1,1.765-1.78l3.739,3.739,3.739-3.739a1.256,1.256,0,1,1,1.765,1.78h0l-3.739,3.739Z" transform="translate(821.041 34.916)" fill="#e8451d"/>
  </g>
</svg>
