<svg xmlns="http://www.w3.org/2000/svg" width="57.011" height="57.044" viewBox="0 0 57.011 57.044">
  <g id="flash" transform="translate(-783.34 -253.371)">
    <path id="Trazado_82" data-name="Trazado 82" d="M161.546,169.174a1.2,1.2,0,0,1-1.2-1.182h0v-4.756a1.2,1.2,0,0,1,1.2-1.2,1.182,1.182,0,0,1,1.181,1.2h0v4.726a1.181,1.181,0,0,1-1.181,1.181Z" transform="translate(650.3 91.335)" fill="#1677ff"/>
    <path id="Trazado_83" data-name="Trazado 83" d="M172.212,173.134a1.181,1.181,0,0,1-1.181-1.181,1.152,1.152,0,0,1,.344-.838l3.365-3.365a1.185,1.185,0,0,1,1.7,1.645h0l-3.4,3.4a1.152,1.152,0,0,1-.833.344Z" transform="translate(655.592 93.985)" fill="#1677ff"/>
    <path id="Trazado_84" data-name="Trazado 84" d="M181.387,182.683h-4.756a1.182,1.182,0,0,1,0-2.363h4.756a1.181,1.181,0,1,1,0,2.363Z" transform="translate(657.783 100.393)" fill="#1677ff"/>
    <path id="Trazado_85" data-name="Trazado 85" d="M175.578,196.734a1.2,1.2,0,0,1-.837-.359l-3.365-3.35a1.2,1.2,0,0,1,0-1.69,1.182,1.182,0,0,1,1.675,0h0l3.365,3.365a1.2,1.2,0,0,1-.837,2.034Z" transform="translate(655.591 105.679)" fill="#1677ff"/>
    <path id="Trazado_86" data-name="Trazado 86" d="M161.546,202.544a1.2,1.2,0,0,1-1.2-1.2h0V196.6a1.2,1.2,0,0,1,1.2-1.2,1.182,1.182,0,0,1,1.181,1.2v4.741a1.181,1.181,0,0,1-1.181,1.2Z" transform="translate(650.3 107.871)" fill="#1677ff"/>
    <path id="Trazado_87" data-name="Trazado 87" d="M148.626,196.706a1.2,1.2,0,0,1-.852-2.034l3.365-3.365a1.2,1.2,0,0,1,1.675,1.69l-3.35,3.35A1.2,1.2,0,0,1,148.626,196.706Z" transform="translate(643.898 105.708)" fill="#1677ff"/>
    <path id="Trazado_88" data-name="Trazado 88" d="M148.012,182.683h-4.741a1.182,1.182,0,0,1,0-2.363h4.741a1.181,1.181,0,1,1,0,2.363Z" transform="translate(641.251 100.393)" fill="#1677ff"/>
    <path id="Trazado_89" data-name="Trazado 89" d="M151.972,173.129a1.181,1.181,0,0,1-.837-.344l-3.35-3.365a1.184,1.184,0,1,1,1.675-1.675l3.365,3.365a1.182,1.182,0,0,1-.852,2.019Z" transform="translate(643.901 93.99)" fill="#1677ff"/>
    <path id="Trazado_90" data-name="Trazado 90" d="M161.7,206.4a1.033,1.033,0,0,1-.419,0,1.2,1.2,0,0,1-.763-1.271l2.034-15.284H154.4a1.186,1.186,0,0,1-.961-1.9l14.268-19.008a1.181,1.181,0,0,1,2.124.9l-2.154,12.877h8.106a1.242,1.242,0,0,1,1.047,1.855l-14.073,21.386a1.211,1.211,0,0,1-1,.523Zm-4.935-19.008h7.134a1.2,1.2,0,0,1,1.2,1.2v.15l-1.5,11.5L173.6,185.011h-7.3a1.181,1.181,0,0,1-1.181-1.181.851.851,0,0,1,0-.194l1.57-9.452Z" transform="translate(646.757 94.506)" fill="#1677ff"/>
  </g>
</svg>
