<svg xmlns="http://www.w3.org/2000/svg" width="29.079" height="31.504" viewBox="0 0 29.079 31.504">
  <g id="invitar-amigos" transform="translate(-775.329 -159.622)">
    <g id="share" transform="translate(775.579 159.873)">
      <path id="Trazado_156" data-name="Trazado 156" d="M154.266,109.211a4.846,4.846,0,1,1,4.846-4.846A4.846,4.846,0,0,1,154.266,109.211Zm0-7.747a2.916,2.916,0,1,0,2.9,2.9h0a2.886,2.886,0,0,0-2.9-2.886Z" transform="translate(-130.696 -99.52)" fill="#707070" stroke="#707070" stroke-width="0.5"/>
      <path id="Trazado_157" data-name="Trazado 157" d="M154.266,123.461a4.846,4.846,0,1,1,3.432-1.425A4.846,4.846,0,0,1,154.266,123.461Zm0-7.747a2.916,2.916,0,1,0,2.9,2.886h0a2.886,2.886,0,0,0-2.9-2.886Z" transform="translate(-130.696 -92.458)" fill="#707070" stroke="#707070" stroke-width="0.5"/>
      <path id="Trazado_158" data-name="Trazado 158" d="M141.746,116.341a4.846,4.846,0,1,1,4.846-4.846h0A4.846,4.846,0,0,1,141.746,116.341Zm0-7.747a2.9,2.9,0,1,0,2.9,2.9h0a2.9,2.9,0,0,0-2.9-2.9Z" transform="translate(-136.9 -95.987)" fill="#707070" stroke="#707070" stroke-width="0.5"/>
      <path id="Trazado_159" data-name="Trazado 159" d="M142.712,112.159a.987.987,0,0,1-.972-.972.972.972,0,0,1,.494-.838l11.964-6.835a.972.972,0,0,1,1.3.419.987.987,0,0,1-.344,1.271l-11.964,6.82a.853.853,0,0,1-.479.135Z" transform="translate(-134.502 -97.592)" fill="#707070" stroke="#707070" stroke-width="0.5"/>
      <path id="Trazado_160" data-name="Trazado 160" d="M154.681,119.292a.852.852,0,0,1-.479-.135l-11.964-6.835a.972.972,0,0,1-.3-1.331.942.942,0,0,1,1.256-.344l11.964,6.835a.957.957,0,0,1,.359,1.316.987.987,0,0,1-.836.494Z" transform="translate(-134.476 -94.062)" fill="#707070" stroke="#707070" stroke-width="0.5"/>
    </g>
  </g>
</svg>
