<svg xmlns="http://www.w3.org/2000/svg" width="17.552" height="20.067" viewBox="0 0 17.552 20.067">
  <g id="user" transform="translate(-1132.48 -90.435)">
    <g id="Grupo_7" data-name="Grupo 7" transform="translate(1136.485 90.435)">
      <path id="Trazado_95" data-name="Trazado 95" d="M383.006,62.662a4.711,4.711,0,0,1-4.786-4.621v-.165a4.786,4.786,0,1,1,9.572,0h0a4.711,4.711,0,0,1-4.621,4.786Zm0-7.986a3.2,3.2,0,1,0,3.186,3.2,3.2,3.2,0,0,0-3.186-3.2Z" transform="translate(-378.22 -53.09)" fill="#707070"/>
    </g>
    <g id="Grupo_8" data-name="Grupo 8" transform="translate(1132.484 102.399)">
      <path id="Trazado_96" data-name="Trazado 96" d="M392.3,69.076a.748.748,0,0,1-.793-.7v-3.29a2.453,2.453,0,0,0-2.393-2.393h-9.572a2.453,2.453,0,0,0-2.393,2.393v3.186a.808.808,0,1,1-1.6,0V65.083a3.963,3.963,0,0,1,3.918-3.993h9.646a3.948,3.948,0,0,1,3.978,3.918v3.26a.748.748,0,0,1-.688.808Z" transform="translate(-375.545 -61.09)" fill="#707070"/>
    </g>
  </g>
</svg>
