<svg id="Capa_3" data-name="Capa 3" xmlns="http://www.w3.org/2000/svg" viewBox="0 0 26.43 42.3"><defs><style>.cls-1{fill:#ffffff;}</style></defs><title>energy-1</title><g id="prefix_energy" data-name="prefix  energy"><path id="prefix_Path_90" data-name="prefix  Path 90" class="cls-1" d="M17.45,42.3a1.5,1.5,0,0,1-.47-.08,1.32,1.32,0,0,1-.85-1.41l2.26-17H9.32A1.32,1.32,0,0,1,8,22.48a1.34,1.34,0,0,1,.26-.8L24.13.53A1.32,1.32,0,0,1,26,.27a1.34,1.34,0,0,1,.51,1.27L24.1,15.86h9a1.33,1.33,0,0,1,1.17.7,1.35,1.35,0,0,1-.06,1.36L18.55,41.7a1.33,1.33,0,0,1-1.1.59ZM12,21.15H19.9a1.33,1.33,0,0,1,1.32,1.33.91.91,0,0,1,0,.17l-1.7,12.79L30.66,18.51H22.54a1.32,1.32,0,0,1-1.32-1.32,1.5,1.5,0,0,1,0-.22L23,6.45Z" transform="translate(-8 0)"/></g></svg>