<svg id="Capa_2" data-name="Capa 2" xmlns="http://www.w3.org/2000/svg" viewBox="0 0 34.72 42.32"><defs><style>.cls-1{fill:#ffffff;}</style></defs><title>flag-1</title><g id="prefix_flag" data-name="prefix  flag"><g id="prefix_Group_49" data-name="prefix  Group 49"><path id="prefix_Path_144" data-name="prefix  Path 144" class="cls-1" d="M38.63,24.83,35.51,17l3.12-7.81a1.25,1.25,0,0,0-.69-1.61,1.22,1.22,0,0,0-.46-.09H23V4.63a1.23,1.23,0,0,0-1.24-1.24H6.48V1.24A1.24,1.24,0,0,0,4,1.24V41.08a1.24,1.24,0,0,0,2.48,0V22.4H16.4v2.89a1.24,1.24,0,0,0,1.24,1.24H37.48a1.24,1.24,0,0,0,1.24-1.24,1.25,1.25,0,0,0-.09-.46Zm-18.1-4.91h-14v-14H20.53Zm.1,4.13,2-2a1.27,1.27,0,0,0,.36-.88V10H35.65L33,16.57a1.22,1.22,0,0,0,0,.92l2.63,6.56Z" transform="translate(-4 0)"/></g></g></svg>