<svg xmlns="http://www.w3.org/2000/svg" id="prefix__instagram" width="28.285" height="28.285" viewBox="0 0 28.285 28.285">
    <defs>
        <style>
            .prefix__cls-1{fill:#dc6e6f}
        </style>
    </defs>
    <path id="prefix__Path_148" d="M156.328 150.5a5.828 5.828 0 1 0 5.828 5.828 5.835 5.835 0 0 0-5.828-5.828zm0 0" class="prefix__cls-1" data-name="Path 148" transform="translate(-142.186 -142.186)"/>
    <path id="prefix__Path_149" d="M25.435 2.85A9.635 9.635 0 0 0 18.581 0H9.7A9.731 9.731 0 0 0 0 9.7v8.88a9.731 9.731 0 0 0 9.7 9.7h8.876a9.731 9.731 0 0 0 9.7-9.7V9.7a9.636 9.636 0 0 0-2.841-6.85zM14.143 21.628a7.486 7.486 0 1 1 7.486-7.486 7.494 7.494 0 0 1-7.486 7.486zm8.292-14.606a.829.829 0 1 1 .243-.586.835.835 0 0 1-.243.586zm0 0" class="prefix__cls-1" data-name="Path 149"/>
</svg>
