<svg xmlns="http://www.w3.org/2000/svg" xmlns:xlink="http://www.w3.org/1999/xlink" width="301.103" height="68.872" viewBox="0 0 301.103 68.872">
    <defs>
        <linearGradient id="prefix__linear-gradient" x1="-.001" x2="1.087" y1=".56" y2=".56" gradientUnits="objectBoundingBox">
            <stop offset="0" stop-color="#3d3d3d"/>
            <stop offset="1"/>
        </linearGradient>
        <linearGradient id="prefix__linear-gradient-2" x1="-1.152" x2="9.458" y1="-2.258" y2="15.444" xlink:href="#prefix__linear-gradient"/>
        <linearGradient id="prefix__linear-gradient-3" x1="-4.659" x2="8.325" y1="-6.142" y2="10.572" xlink:href="#prefix__linear-gradient"/>
        <linearGradient id="prefix__linear-gradient-4" x1="-3.329" x2="5.214" y1="-9.321" y2="12.587" xlink:href="#prefix__linear-gradient"/>
        <linearGradient id="prefix__linear-gradient-5" x1="-3.949" x2="5.486" y1="-8.824" y2="10.95" xlink:href="#prefix__linear-gradient"/>
        <linearGradient id="prefix__linear-gradient-6" x1="-3.739" x2="4.867" y1="-8.454" y2="9.726" xlink:href="#prefix__linear-gradient"/>
        <linearGradient id="prefix__linear-gradient-7" x1="-3.928" x2="4.679" y1="-7.064" y2="7.639" xlink:href="#prefix__linear-gradient"/>
        <linearGradient id="prefix__linear-gradient-8" x1="-4.604" x2="4.858" y1="-6.936" y2="6.849" xlink:href="#prefix__linear-gradient"/>
        <linearGradient id="prefix__linear-gradient-9" x1="-4.336" x2="4.264" y1="-7.148" y2="6.453" xlink:href="#prefix__linear-gradient"/>
        <linearGradient id="prefix__linear-gradient-10" x1="-4.309" x2="3.879" y1="-7.445" y2="6.083" xlink:href="#prefix__linear-gradient"/>
        <linearGradient id="prefix__linear-gradient-11" x1="-4.52" x2="3.666" y1="-7.794" y2="5.732" xlink:href="#prefix__linear-gradient"/>
        <linearGradient id="prefix__linear-gradient-12" x1="-4.718" x2="3.474" y1="-8.116" y2="5.408" xlink:href="#prefix__linear-gradient"/>
        <linearGradient id="prefix__linear-gradient-13" x1="-5.126" x2="3.398" y1="-8.433" y2="5.104" xlink:href="#prefix__linear-gradient"/>
        <linearGradient id="prefix__linear-gradient-14" x1="-5.56" x2="3.366" y1="-8.804" y2="4.9" xlink:href="#prefix__linear-gradient"/>
        <linearGradient id="prefix__linear-gradient-15" x1="-6.209" x2="3.46" y1="-9.086" y2="4.73" xlink:href="#prefix__linear-gradient"/>
        <linearGradient id="prefix__linear-gradient-16" x1="-7.03" x2="3.637" y1="-10.786" y2="5.199" xlink:href="#prefix__linear-gradient"/>
        <linearGradient id="prefix__linear-gradient-17" x1="-7.58" x2="3.683" y1="-11.082" y2="5.058" xlink:href="#prefix__linear-gradient"/>
        <linearGradient id="prefix__linear-gradient-18" x1="-7.97" x2="3.741" y1="-11.186" y2="4.972" xlink:href="#prefix__linear-gradient"/>
        <linearGradient id="prefix__linear-gradient-19" x1="-4.833" x2="8.138" y1="-6.37" y2="10.345" xlink:href="#prefix__linear-gradient"/>
        <linearGradient id="prefix__linear-gradient-20" x1="-4.525" x2="7.356" y1="-6.337" y2="9.828" xlink:href="#prefix__linear-gradient"/>
        <linearGradient id="prefix__linear-gradient-21" x1="-4.161" x2="6.414" y1="-6.174" y2="8.969" xlink:href="#prefix__linear-gradient"/>
        <linearGradient id="prefix__linear-gradient-22" x1="-4.068" x2="5.874" y1="-6.415" y2="8.632" xlink:href="#prefix__linear-gradient"/>
        <linearGradient id="prefix__linear-gradient-23" x1="-4.219" x2="5.587" y1="-6.586" y2="8.138" xlink:href="#prefix__linear-gradient"/>
        <linearGradient id="prefix__linear-gradient-24" x1="-4.453" x2="5.361" y1="-6.924" y2="7.788" xlink:href="#prefix__linear-gradient"/>
        <linearGradient id="prefix__linear-gradient-25" x1="-4.678" x2="5.139" y1="-7.267" y2="7.456" xlink:href="#prefix__linear-gradient"/>
        <linearGradient id="prefix__linear-gradient-26" x1="-4.919" x2="4.897" y1="-7.633" y2="7.095" xlink:href="#prefix__linear-gradient"/>
        <linearGradient id="prefix__linear-gradient-27" x1="-5.129" x2="4.685" y1="-7.947" y2="6.779" xlink:href="#prefix__linear-gradient"/>
        <linearGradient id="prefix__linear-gradient-28" x1="-5.711" x2="4.814" y1="-8.8" y2="6.957" xlink:href="#prefix__linear-gradient"/>
        <linearGradient id="prefix__linear-gradient-29" x1="-5.7" x2="4.457" y1="-10.302" y2="7.398" xlink:href="#prefix__linear-gradient"/>
        <linearGradient id="prefix__linear-gradient-30" x1="-6.25" x2="4.505" y1="-10.455" y2="6.999" xlink:href="#prefix__linear-gradient"/>
        <linearGradient id="prefix__linear-gradient-31" x1="-6.78" x2="4.52" y1="-10.829" y2="6.757" xlink:href="#prefix__linear-gradient"/>
        <linearGradient id="prefix__linear-gradient-32" x1="-7.37" x2="4.6" y1="-11.659" y2="6.834" xlink:href="#prefix__linear-gradient"/>
        <linearGradient id="prefix__linear-gradient-33" x1="-5.864" x2="13.528" y1="-5.233" y2="12.238" xlink:href="#prefix__linear-gradient"/>
        <linearGradient id="prefix__linear-gradient-34" x1="-5.915" x2="13.405" y1="-4.667" y2="10.906" xlink:href="#prefix__linear-gradient"/>
        <linearGradient id="prefix__linear-gradient-35" x1="-6.198" x2="13.324" y1="-4.826" y2="10.708" xlink:href="#prefix__linear-gradient"/>
        <linearGradient id="prefix__linear-gradient-36" x1="-5.323" x2="11.107" y1="-5.002" y2="10.521" xlink:href="#prefix__linear-gradient"/>
        <linearGradient id="prefix__linear-gradient-37" x1="-4.777" x2="9.335" y1="-5.296" y2="10.199" xlink:href="#prefix__linear-gradient"/>
        <linearGradient id="prefix__linear-gradient-38" x1="-3.956" x2="7.347" y1="-5.009" y2="8.96" xlink:href="#prefix__linear-gradient"/>
        <linearGradient id="prefix__linear-gradient-39" x1="-4.198" x2="7.093" y1="-5.318" y2="8.65" xlink:href="#prefix__linear-gradient"/>
        <linearGradient id="prefix__linear-gradient-40" x1="-4.392" x2="6.73" y1="-6.657" y2="9.613" xlink:href="#prefix__linear-gradient"/>
        <linearGradient id="prefix__linear-gradient-41" x1="-4.661" x2="6.464" y1="-7.047" y2="9.219" xlink:href="#prefix__linear-gradient"/>
        <linearGradient id="prefix__linear-gradient-42" x1="-4.677" x2="5.902" y1="-7.644" y2="9.004" xlink:href="#prefix__linear-gradient"/>
        <linearGradient id="prefix__linear-gradient-43" x1="-4.733" x2="5.508" y1="-8.588" y2="9.199" xlink:href="#prefix__linear-gradient"/>
        <linearGradient id="prefix__linear-gradient-44" x1="-4.985" x2="5.26" y1="-9.021" y2="8.764" xlink:href="#prefix__linear-gradient"/>
        <linearGradient id="prefix__linear-gradient-45" x1="-5.605" x2="5.348" y1="-9.534" y2="8.468" xlink:href="#prefix__linear-gradient"/>
        <linearGradient id="prefix__linear-gradient-46" x1="-5.818" x2="5.163" y1="-9.864" y2="8.153" xlink:href="#prefix__linear-gradient"/>
        <linearGradient id="prefix__linear-gradient-47" x1="-6.436" x2="5.256" y1="-10.305" y2="7.909" xlink:href="#prefix__linear-gradient"/>
        <linearGradient id="prefix__linear-gradient-48" x1="-2.953" x2="11.355" y1="-3.338" y2="12.569" xlink:href="#prefix__linear-gradient"/>
        <linearGradient id="prefix__linear-gradient-49" x1="-3.465" x2="13.375" y1="-3.13" y2="12.264" xlink:href="#prefix__linear-gradient"/>
        <linearGradient id="prefix__linear-gradient-50" x1="-3.517" x2="13.328" y1="-3.17" y2="12.226" xlink:href="#prefix__linear-gradient"/>
        <linearGradient id="prefix__linear-gradient-51" x1="-3.005" x2="11.384" y1="-3.195" y2="11.976" xlink:href="#prefix__linear-gradient"/>
        <linearGradient id="prefix__linear-gradient-52" x1="-2.726" x2="9.459" y1="-3.094" y2="10.482" xlink:href="#prefix__linear-gradient"/>
        <linearGradient id="prefix__linear-gradient-53" x1="-2.464" x2="7.807" y1="-3.461" y2="10.267" xlink:href="#prefix__linear-gradient"/>
        <linearGradient id="prefix__linear-gradient-54" x1="-2.719" x2="7.542" y1="-3.808" y2="9.921" xlink:href="#prefix__linear-gradient"/>
        <linearGradient id="prefix__linear-gradient-55" x1="-3.185" x2="7.423" y1="-4.958" y2="10.757" xlink:href="#prefix__linear-gradient"/>
        <linearGradient id="prefix__linear-gradient-56" x1="-3.727" x2="7.49" y1="-5.31" y2="10.109" xlink:href="#prefix__linear-gradient"/>
        <linearGradient id="prefix__linear-gradient-57" x1="-3.877" x2="6.824" y1="-6.46" y2="10.56" xlink:href="#prefix__linear-gradient"/>
        <linearGradient id="prefix__linear-gradient-58" x1="-4.201" x2="6.496" y1="-6.98" y2="10.043" xlink:href="#prefix__linear-gradient"/>
        <linearGradient id="prefix__linear-gradient-59" x1="-5.155" x2="6.995" y1="-8.006" y2="10.271" xlink:href="#prefix__linear-gradient"/>
        <linearGradient id="prefix__linear-gradient-60" x1="-5.116" x2="6.37" y1="-9.039" y2="10.474" xlink:href="#prefix__linear-gradient"/>
        <linearGradient id="prefix__linear-gradient-61" x1="-5.809" x2="6.487" y1="-9.648" y2="10.135" xlink:href="#prefix__linear-gradient"/>
        <linearGradient id="prefix__linear-gradient-62" x1="-5.447" x2="5.852" y1="-8.797" y2="8.855" xlink:href="#prefix__linear-gradient"/>
        <linearGradient id="prefix__linear-gradient-63" x1="-1.033" x2="10.525" y1="-1.61" y2="14.314" xlink:href="#prefix__linear-gradient"/>
        <linearGradient id="prefix__linear-gradient-64" x1="-.799" x2="9.9" y1="-1.257" y2="13.217" xlink:href="#prefix__linear-gradient"/>
        <linearGradient id="prefix__linear-gradient-65" x1="-.805" x2="9.694" y1="-1.23" y2="12.691" xlink:href="#prefix__linear-gradient"/>
        <linearGradient id="prefix__linear-gradient-66" x1="-.89" x2="9.029" y1="-1.408" y2="12.215" xlink:href="#prefix__linear-gradient"/>
        <linearGradient id="prefix__linear-gradient-67" x1="-.944" x2="7.645" y1="-1.546" y2="10.67" xlink:href="#prefix__linear-gradient"/>
        <linearGradient id="prefix__linear-gradient-68" x1="-1.245" x2="7.345" y1="-1.98" y2="10.237" xlink:href="#prefix__linear-gradient"/>
        <linearGradient id="prefix__linear-gradient-69" x1="-1.729" x2="7.574" y1="-3.03" y2="11.705" xlink:href="#prefix__linear-gradient"/>
        <linearGradient id="prefix__linear-gradient-70" x1="-2.352" x2="7.88" y1="-4.014" y2="12.187" xlink:href="#prefix__linear-gradient"/>
        <linearGradient id="prefix__linear-gradient-71" x1="-2.524" x2="6.985" y1="-5.256" y2="12.842" xlink:href="#prefix__linear-gradient"/>
        <linearGradient id="prefix__linear-gradient-72" x1="-2.861" x2="6.551" y1="-5.522" y2="11.339" xlink:href="#prefix__linear-gradient"/>
        <linearGradient id="prefix__linear-gradient-73" x1="-3.788" x2="7.169" y1="-6.534" y2="11.441" xlink:href="#prefix__linear-gradient"/>
        <linearGradient id="prefix__linear-gradient-74" x1="-4.558" x2="7.478" y1="-7.33" y2="11.301" xlink:href="#prefix__linear-gradient"/>
        <linearGradient id="prefix__linear-gradient-75" x1="-5.406" x2="7.809" y1="-7.86" y2="10.851" xlink:href="#prefix__linear-gradient"/>
        <linearGradient id="prefix__linear-gradient-76" x1="-5.471" x2="7.386" y1="-7.736" y2="10" xlink:href="#prefix__linear-gradient"/>
        <style>
            .prefix__cls-1{fill:#19416f}
        </style>
    </defs>
    <g id="prefix__janus" transform="translate(.009 .005)">
        <path id="prefix__Path_1" d="M240.7 21v30.84q0 3.243-.172 5.524a23.677 23.677 0 0 1-.588 3.932 13.966 13.966 0 0 1-1 2.831 12.376 12.376 0 0 1-1.435 2.21 16.09 16.09 0 0 1-6.557 5.036 20.131 20.131 0 0 1-7.868 1.66c-.234 0-.808 0-1.727-.072a17.32 17.32 0 0 1-3.281-.55 20.568 20.568 0 0 1-4.037-1.554 13.722 13.722 0 0 1-3.932-3 15.817 15.817 0 0 1-3-4.9 19.376 19.376 0 0 1-1.21-7.313h13.871c.043.6.115 1.239.206 1.913a7.607 7.607 0 0 0 .517 1.913 3.611 3.611 0 0 0 1.143 1.483 3.291 3.291 0 0 0 2.071.588 3.458 3.458 0 0 0 2.277-.689 3.783 3.783 0 0 0 1.172-1.693 8.013 8.013 0 0 0 .416-2.1c.043-.737.067-1.406.067-2V21z" class="prefix__cls-1" data-name="Path 1" transform="translate(-109.744 -14.689)"/>
        <path id="prefix__Path_2" d="M332.55 84.514h-11.479v-4.142h-.139a9.089 9.089 0 0 1-1.913 2.391 10.949 10.949 0 0 1-2.693 1.727 13.688 13.688 0 0 1-3.209 1 18.653 18.653 0 0 1-3.348.311 19.213 19.213 0 0 1-8.131-1.66 17.668 17.668 0 0 1-6.041-4.486 20.112 20.112 0 0 1-3.774-6.51 23.182 23.182 0 0 1-1.315-7.834 21.833 21.833 0 0 1 1.588-8.49 20.04 20.04 0 0 1 4.214-6.452 18.06 18.06 0 0 1 6.108-4.075 19.38 19.38 0 0 1 7.351-1.435 15.741 15.741 0 0 1 4.209.521 13.981 13.981 0 0 1 3.248 1.311 10.248 10.248 0 0 1 2.277 1.727 11 11 0 0 1 1.435 1.827h.139V46.2h11.479zm-30.582-19.055a10.264 10.264 0 0 0 .517 3.037 10.045 10.045 0 0 0 1.66 3.142 9.332 9.332 0 0 0 2.932 2.482 9.932 9.932 0 0 0 11.91-2.482 9.566 9.566 0 0 0 1.621-3.209 11.73 11.73 0 0 0 .478-3.109 10.623 10.623 0 0 0-.588-3.448 9.564 9.564 0 0 0-1.794-3.142 8.968 8.968 0 0 0-3.037-2.277 9.872 9.872 0 0 0-4.247-.866 8.949 8.949 0 0 0-4.243.933 9.356 9.356 0 0 0-2.937 2.391 9.8 9.8 0 0 0-1.727 3.176 11.058 11.058 0 0 0-.545 3.372z" class="prefix__cls-1" data-name="Path 2" transform="translate(-154.148 -27.358)"/>
        <path id="prefix__Path_3" d="M395.828 46.211h10.7v4.07h.139a16.459 16.459 0 0 1 1.133-1.621 8.4 8.4 0 0 1 1.913-1.76 11.787 11.787 0 0 1 3-1.435 14.052 14.052 0 0 1 4.348-.588 16.262 16.262 0 0 1 5.486.957 13.267 13.267 0 0 1 4.3 2.344 18.966 18.966 0 0 1 1.555 1.621 9.334 9.334 0 0 1 1.435 2.391 17.991 17.991 0 0 1 1.033 3.487 24.676 24.676 0 0 1 .416 4.869V84.5h-11.467V63.587q0-1.038-.1-2.391a7.9 7.9 0 0 0-.66-2.592 5.137 5.137 0 0 0-1.76-2.1 5.947 5.947 0 0 0-3.482-.861 6.369 6.369 0 0 0-3.8.957 5.825 5.825 0 0 0-1.913 2.21 7.217 7.217 0 0 0-.737 2.626c-.067.9-.1 1.645-.1 2.243v20.843H395.79z" class="prefix__cls-1" data-name="Path 3" transform="translate(-209.348 -27.356)"/>
        <path id="prefix__Path_4" d="M520.244 85.981H509.41v-4.075h-.139a8.417 8.417 0 0 1-2.143 2.9 9.8 9.8 0 0 1-2.621 1.588 10.254 10.254 0 0 1-2.726.694 24.519 24.519 0 0 1-2.449.134c-.6 0-1.358-.043-2.281-.134a14.168 14.168 0 0 1-2.965-.66 14.929 14.929 0 0 1-3.176-1.483 10.484 10.484 0 0 1-2.831-2.554 15.847 15.847 0 0 1-1.827-2.726 14.036 14.036 0 0 1-1.038-2.621 14.309 14.309 0 0 1-.478-2.9c-.067-1.033-.105-2.219-.105-3.554V47.67h11.479v21.2c0 .646.033 1.435.105 2.315a7.142 7.142 0 0 0 .655 2.521 4.868 4.868 0 0 0 1.827 2 6.485 6.485 0 0 0 3.558.827 7.8 7.8 0 0 0 2.415-.378 5.6 5.6 0 0 0 2.1-1.244 5.921 5.921 0 0 0 1.483-2.391 11.188 11.188 0 0 0 .555-3.793V47.684h11.479z" class="prefix__cls-1" data-name="Path 4" transform="translate(-256.158 -28.831)"/>
        <path id="prefix__Path_5" d="M589.993 57.028a4.2 4.2 0 0 0-.105-.794 2.3 2.3 0 0 0-.445-.957 2.95 2.95 0 0 0-1.071-.794 4.645 4.645 0 0 0-1.966-.344 3.072 3.072 0 0 0-2.521.9 2.726 2.726 0 0 0-.727 1.655 2.815 2.815 0 0 0 1.8 2.521 23.737 23.737 0 0 0 4.07 1.621q2.42.689 4.831 1.483a16.835 16.835 0 0 1 4.3 2.1 10.349 10.349 0 0 1 3.085 3.305 10.044 10.044 0 0 1 1.172 5.108 11.739 11.739 0 0 1-1.244 5.453 12.436 12.436 0 0 1-3.382 4.109 15.443 15.443 0 0 1-4.969 2.588 19.782 19.782 0 0 1-6.007.9 22.623 22.623 0 0 1-4.783-.555 14.766 14.766 0 0 1-4.831-2 13.014 13.014 0 0 1-5.98-10.127h11.374a4.031 4.031 0 0 0 .827 2.038 3.688 3.688 0 0 0 1.349 1.033 4.681 4.681 0 0 0 1.344.383c.411.048.689.067.827.067a5.06 5.06 0 0 0 2.726-.794 2.439 2.439 0 0 0 1.277-2.171 2.8 2.8 0 0 0-.55-1.8 5.444 5.444 0 0 0-1.76-1.311 27.366 27.366 0 0 0-3.142-1.311c-1.287-.478-2.87-1.033-4.692-1.727a21.689 21.689 0 0 1-3.52-1.516 12.586 12.586 0 0 1-2.9-2.143 9.628 9.628 0 0 1-1.966-2.827 8.4 8.4 0 0 1-.722-3.52 11.169 11.169 0 0 1 1.205-5.18 12.436 12.436 0 0 1 3.248-4 14.794 14.794 0 0 1 4.726-2.554 17.788 17.788 0 0 1 5.658-.9 22.264 22.264 0 0 1 4.3.478 14.291 14.291 0 0 1 4.592 1.8 12.838 12.838 0 0 1 3.826 3.659 12.41 12.41 0 0 1 2 6.141z" class="prefix__cls-1" data-name="Path 5" transform="translate(-301.332 -27.417)"/>
        <path id="prefix__Path_6" fill="url(#prefix__linear-gradient)" d="M314.089 144.262a1.09 1.09 0 0 1-.206.727.923.923 0 0 1-.713.23.957.957 0 0 1-.717-.23 1.091 1.091 0 0 1-.2-.727v-3.908h-.953v4.161a1.63 1.63 0 0 0 .115.607 1.435 1.435 0 0 0 .344.517 1.664 1.664 0 0 0 .588.354 2.726 2.726 0 0 0 1.688 0 1.626 1.626 0 0 0 .588-.354 1.436 1.436 0 0 0 .344-.517 1.631 1.631 0 0 0 .115-.607v-4.161h-.957zm32.72-.23l-1.794-3.678h-1.038v5.682h.866v-3.989l1.985 3.989h.847v-5.682h-.861zm7.26-2.435a1.048 1.048 0 0 1 .368-.359.928.928 0 0 1 .44-.115.789.789 0 0 1 .7.335 2.158 2.158 0 0 1 .273 1.076h.957a3.163 3.163 0 0 0-.115-.856 2.06 2.06 0 0 0-.354-.727 1.741 1.741 0 0 0-.622-.5 1.961 1.961 0 0 0-.885-.187 1.778 1.778 0 0 0-.823.191 2.013 2.013 0 0 0-.67.564 2.869 2.869 0 0 0-.454.918 4.329 4.329 0 0 0-.167 1.258 5.265 5.265 0 0 0 .153 1.349 2.469 2.469 0 0 0 .421.909 1.645 1.645 0 0 0 .665.517 2.3 2.3 0 0 0 .875.158 1.951 1.951 0 0 0 .847-.167 1.7 1.7 0 0 0 .6-.478 2.036 2.036 0 0 0 .373-.7 3.348 3.348 0 0 0 .153-.875h-.957a4.52 4.52 0 0 1-.139.655 1.188 1.188 0 0 1-.21.411.689.689 0 0 1-.3.215 1.105 1.105 0 0 1-.392.062.87.87 0 0 1-.789-.478 2.225 2.225 0 0 1-.23-.636 4.6 4.6 0 0 1-.086-.957 4.182 4.182 0 0 1 .1-.957 2.1 2.1 0 0 1 .277-.627zm-17.506-1.244l-1.746 5.682h1l.478-1.507h1.435l.478 1.507h.995l-1.765-5.682zm-.081 3.31l.478-1.832.478 1.832zm-7.227-.66a.713.713 0 0 0 .325-.124 1.011 1.011 0 0 0 .239-.253.956.956 0 0 0 .153-.33 1.121 1.121 0 0 0 .053-.344 1.7 1.7 0 0 0-.12-.665 1.291 1.291 0 0 0-.344-.478 1.556 1.556 0 0 0-.521-.3 2.072 2.072 0 0 0-.655-.115h-1.631v5.682h1.961a1.608 1.608 0 0 0 .612-.12 1.436 1.436 0 0 0 .478-.335 1.626 1.626 0 0 0 .325-.526 1.881 1.881 0 0 0 .115-.674 1.66 1.66 0 0 0-.234-.9 1.129 1.129 0 0 0-.755-.521zm-1.531-1.77h.536a.837.837 0 0 1 .583.182.665.665 0 0 1 .211.521.727.727 0 0 1-.172.521.832.832 0 0 1-.622.187h-.536zm1.511 3.492a.556.556 0 0 1-.167.263.717.717 0 0 1-.316.148 2.129 2.129 0 0 1-.5.048h-.526v-1.7h.478a1.287 1.287 0 0 1 .818.22.765.765 0 0 1 .263.622 1.264 1.264 0 0 1-.048.387zm-26.057-3.449h1.148v4.783h.957v-4.783h1.153v-.909h-3.266zm104.746 0h1.143v4.783h.957v-4.783h1.157v-.909h-3.262zm9.064-.909l-1.746 5.682h1l.478-1.507h1.435l.478 1.507h.995l-1.755-5.7zm-.081 3.31l.478-1.832.478 1.832zm8.427 1.507v-4.831h-.957v5.682h2.779v-.866zm-23.334.867h.957v-5.7H402zm-21.1-4.874a1.941 1.941 0 0 0-.646-.6 1.827 1.827 0 0 0-.9-.22h-1.913v5.682h1.641a2.31 2.31 0 0 0 .957-.191 1.942 1.942 0 0 0 .737-.55 2.615 2.615 0 0 0 .478-.894 4.05 4.05 0 0 0 .167-1.205 4.364 4.364 0 0 0-.134-1.114 2.989 2.989 0 0 0-.38-.908zm-.54 2.9a1.854 1.854 0 0 1-.268.612 1.139 1.139 0 0 1-.411.363 1.2 1.2 0 0 1-.531.115h-.727v-3.951h.708a1.172 1.172 0 0 1 .521.11 1.028 1.028 0 0 1 .416.349 1.863 1.863 0 0 1 .268.612 3.57 3.57 0 0 1 .1.9 3.681 3.681 0 0 1-.076.885zm-14.96-3.029a1.975 1.975 0 0 0-.665-.584 1.848 1.848 0 0 0-2.368.584 2.822 2.822 0 0 0-.435.918 5.012 5.012 0 0 0 0 2.458 2.822 2.822 0 0 0 .435.918 1.848 1.848 0 0 0 2.368.584 1.975 1.975 0 0 0 .665-.584 2.721 2.721 0 0 0 .43-.918 5.012 5.012 0 0 0 0-2.458 2.721 2.721 0 0 0-.43-.918zm-.478 3.09a2.109 2.109 0 0 1-.244.641 1.072 1.072 0 0 1-.363.368.832.832 0 0 1-.861 0 1.034 1.034 0 0 1-.363-.368 2 2 0 0 1-.244-.641 4.932 4.932 0 0 1 0-1.884 1.994 1.994 0 0 1 .244-.641 1.034 1.034 0 0 1 .364-.368.832.832 0 0 1 .861 0 1.072 1.072 0 0 1 .363.368 2.109 2.109 0 0 1 .244.641 4.931 4.931 0 0 1 0 1.884zm29.516-.244h1.406a1.879 1.879 0 0 1-.23 1 .827.827 0 0 1-.751.368 1.019 1.019 0 0 1-.9-.478 3.008 3.008 0 0 1-.316-1.588 4.564 4.564 0 0 1 .081-.957 2.077 2.077 0 0 1 .23-.641.943.943 0 0 1 .842-.483.828.828 0 0 1 .627.263 1.684 1.684 0 0 1 .359.875h.957a2.431 2.431 0 0 0-.153-.78 1.913 1.913 0 0 0-.383-.636 1.77 1.77 0 0 0-.588-.43 2.048 2.048 0 0 0-2.4.641 2.715 2.715 0 0 0-.421.928 4.534 4.534 0 0 0-.148 1.21 4.992 4.992 0 0 0 .153 1.306 2.66 2.66 0 0 0 .435.914 1.817 1.817 0 0 0 .684.54 2.272 2.272 0 0 0 .9.172 2.033 2.033 0 0 0 .871-.167 1.607 1.607 0 0 0 .617-.478 2.105 2.105 0 0 0 .363-.741 3.744 3.744 0 0 0 .115-.957v-.746H394.4zm-7.868 2.143h.957v-5.682h-.957z" data-name="Path 6" transform="translate(-161.489 -77.261)"/>
        <path id="prefix__Path_7" fill="url(#prefix__linear-gradient-2)" d="M6.886 31.791c1.081 1.617 1.511 3.219.957 3.587s-1.865-.641-2.951-2.258-1.511-3.214-.957-3.582 1.865.662 2.951 2.253z" data-name="Path 7" transform="translate(-3.7 -19.104)"/>
        <path id="prefix__Path_8" fill="url(#prefix__linear-gradient-3)" d="M21.017 90.535c-.87 1.736-1.961 2.946-2.439 2.707s-.158-1.837.708-3.573 1.966-2.951 2.439-2.712.162 1.843-.708 3.578z" data-name="Path 8" transform="translate(-11.35 -49.297)"/>
        <path id="prefix__Path_9" fill="url(#prefix__linear-gradient-4)" d="M9.657 109.564c-1.468 1.272-2.937 1.98-3.291 1.578s.555-1.765 2.018-3.037 2.937-1.98 3.286-1.578-.549 1.756-2.013 3.037z" data-name="Path 9" transform="translate(-5.056 -59.51)"/>
        <path id="prefix__Path_10" fill="url(#prefix__linear-gradient-5)" d="M20.135 110.9c-1.306 1.435-2.688 2.31-3.08 1.951s.344-1.813 1.645-3.252 2.688-2.31 3.085-1.951-.344 1.822-1.65 3.252z" data-name="Path 10" transform="translate(-10.617 -60.119)"/>
        <path id="prefix__Path_11" fill="url(#prefix__linear-gradient-6)" d="M29.607 112.249c-1.4 1.54-2.961 2.391-3.487 1.913s.182-2.114 1.583-3.654 2.961-2.391 3.487-1.913-.19 2.114-1.583 3.654z" data-name="Path 11" transform="translate(-15.311 -60.588)"/>
        <path id="prefix__Path_12" fill="url(#prefix__linear-gradient-7)" d="M39.059 113.217c-1.339 1.942-2.961 3.142-3.625 2.683s-.11-2.391 1.229-4.333 2.965-3.142 3.625-2.683.112 2.396-1.229 4.333z" data-name="Path 12" transform="translate(-20.113 -60.763)"/>
        <path id="prefix__Path_13" fill="url(#prefix__linear-gradient-8)" d="M49.6 115.084c-1.1 2.085-2.645 3.429-3.439 3.008s-.545-2.454.56-4.534 2.645-3.429 3.439-3 .547 2.442-.56 4.526z" data-name="Path 13" transform="translate(-25.616 -61.652)"/>
        <path id="prefix__Path_14" fill="url(#prefix__linear-gradient-9)" d="M60.862 116.388c-1.1 2.085-2.817 3.348-3.826 2.8s-.957-2.664.163-4.745 2.822-3.348 3.826-2.793.942 2.657-.163 4.738z" data-name="Path 14" transform="translate(-31.155 -62.199)"/>
        <path id="prefix__Path_15" fill="url(#prefix__linear-gradient-10)" d="M72.264 118.091c-1.1 2.081-2.908 3.286-4.027 2.693s-1.129-2.76-.029-4.84 2.908-3.291 4.027-2.7 1.134 2.766.029 4.847z" data-name="Path 15" transform="translate(-36.932 -63.026)"/>
        <path id="prefix__Path_16" fill="url(#prefix__linear-gradient-11)" d="M84.171 119.711c-1.1 2.081-2.908 3.286-4.027 2.693s-1.134-2.769-.033-4.845 2.908-3.286 4.027-2.693 1.138 2.764.033 4.845z" data-name="Path 16" transform="translate(-43.143 -63.935)"/>
        <path id="prefix__Path_17" fill="url(#prefix__linear-gradient-12)" d="M97.41 120.214c-1.1 2.085-2.9 3.291-4.027 2.7s-1.134-2.765-.029-4.845 2.908-3.291 4.027-2.693 1.119 2.757.029 4.838z" data-name="Path 17" transform="translate(-50.049 -64.199)"/>
        <path id="prefix__Path_18" fill="url(#prefix__linear-gradient-13)" d="M111.535 119.961c-1.1 2.081-2.841 3.348-3.874 2.774s-.957-2.683.124-4.783 2.836-3.348 3.869-2.774.986 2.712-.119 4.783z" data-name="Path 18" transform="translate(-57.56 -64.104)"/>
        <path id="prefix__Path_19" fill="url(#prefix__linear-gradient-14)" d="M125.441 118.8c-1.1 2.081-2.75 3.348-3.678 2.87s-.784-2.578.32-4.659 2.75-3.372 3.678-2.87.784 2.569-.32 4.659z" data-name="Path 19" transform="translate(-65.272 -63.518)"/>
        <path id="prefix__Path_20" fill="url(#prefix__linear-gradient-15)" d="M139.712 116.276c-1.1 2.081-2.607 3.444-3.348 3.047s-.478-2.391.641-4.486 2.607-3.448 3.348-3.051.464 2.404-.641 4.49z" data-name="Path 20" transform="translate(-73.027 -62.302)"/>
        <path id="prefix__Path_21" fill="url(#prefix__linear-gradient-16)" d="M154.191 113.809c-.957 1.789-2.324 2.918-3.075 2.521s-.588-2.167.364-3.955 2.325-2.918 3.071-2.521.568 2.166-.36 3.955z" data-name="Path 21" transform="translate(-80.731 -61.279)"/>
        <path id="prefix__Path_22" fill="url(#prefix__linear-gradient-17)" d="M167.667 110.824c-.957 1.789-2.229 2.965-2.87 2.631s-.378-2.057.569-3.826 2.234-2.97 2.87-2.631.378 2.037-.569 3.826z" data-name="Path 22" transform="translate(-87.966 -59.793)"/>
        <path id="prefix__Path_23" fill="url(#prefix__linear-gradient-18)" d="M181.536 106.13c-.957 1.789-2.167 3-2.721 2.707s-.23-1.98.717-3.769 2.167-3 2.721-2.707.23 1.981-.717 3.769z" data-name="Path 23" transform="translate(-95.355 -57.368)"/>
        <path id="prefix__Path_24" fill="url(#prefix__linear-gradient-19)" d="M29.243 90.535c-.866 1.736-1.961 2.946-2.435 2.707s-.163-1.837.708-3.573 1.961-2.951 2.439-2.712.178 1.843-.712 3.578z" data-name="Path 24" transform="translate(-15.645 -49.297)"/>
        <path id="prefix__Path_25" fill="url(#prefix__linear-gradient-20)" d="M37.294 90.178c-.894 1.784-2.114 2.985-2.726 2.678s-.378-2 .521-3.783 2.114-2.985 2.721-2.683.379 1.999-.516 3.788z" data-name="Path 25" transform="translate(-19.63 -48.991)"/>
        <path id="prefix__Path_26" fill="url(#prefix__linear-gradient-21)" d="M46.4 90.786c-.957 1.913-2.339 3.118-3.1 2.741s-.607-2.229.34-4.128 2.339-3.118 3.1-2.736.613 2.225-.34 4.123z" data-name="Path 26" transform="translate(-24.113 -49.124)"/>
        <path id="prefix__Path_27" fill="url(#prefix__linear-gradient-22)" d="M56.357 91.488c-.957 1.913-2.43 3.075-3.31 2.635s-.827-2.334.129-4.228 2.43-3.075 3.31-2.635.823 2.329-.129 4.228z" data-name="Path 27" transform="translate(-29.123 -49.426)"/>
        <path id="prefix__Path_28" fill="url(#prefix__linear-gradient-23)" d="M67.191 92.453c-.851 1.942-2.344 3.162-3.348 2.726s-1.11-2.363-.258-4.3 2.348-3.157 3.348-2.721 1.114 2.354.258 4.295z" data-name="Path 28" transform="translate(-34.647 -49.897)"/>
        <path id="prefix__Path_29" fill="url(#prefix__linear-gradient-24)" d="M78.663 93.593c-.856 1.942-2.348 3.162-3.348 2.721s-1.11-2.363-.258-4.3 2.343-3.165 3.343-2.73 1.114 2.367.263 4.309z" data-name="Path 29" transform="translate(-40.633 -50.49)"/>
        <path id="prefix__Path_30" fill="url(#prefix__linear-gradient-25)" d="M90.12 94.612c-.851 1.942-2.348 3.162-3.348 2.726s-1.114-2.368-.263-4.3 2.353-3.162 3.348-2.722 1.114 2.354.263 4.296z" data-name="Path 30" transform="translate(-46.609 -51.028)"/>
        <path id="prefix__Path_31" fill="url(#prefix__linear-gradient-26)" d="M102.66 95.625c-.851 1.942-2.348 3.162-3.348 2.726s-1.114-2.391-.263-4.3 2.353-3.157 3.348-2.721 1.114 2.353.263 4.295z" data-name="Path 31" transform="translate(-53.151 -51.561)"/>
        <path id="prefix__Path_32" fill="url(#prefix__linear-gradient-27)" d="M115.543 95.625c-.856 1.942-2.348 3.162-3.348 2.726s-1.11-2.391-.258-4.3 2.348-3.157 3.348-2.721 1.109 2.353.258 4.295z" data-name="Path 32" transform="translate(-59.874 -51.561)"/>
        <path id="prefix__Path_33" fill="url(#prefix__linear-gradient-28)" d="M128.574 94.524c-.794 1.813-2.191 2.951-3.118 2.545s-1.038-2.21-.244-4.022 2.188-2.947 3.123-2.547 1.037 2.192.239 4.024z" data-name="Path 33" transform="translate(-67.122 -51.13)"/>
        <path id="prefix__Path_34" fill="url(#prefix__linear-gradient-29)" d="M141.405 94.717c-.914 1.574-2.363 2.435-3.243 1.913s-.847-2.2.067-3.774 2.363-2.435 3.243-1.913.847 2.205-.067 3.774z" data-name="Path 34" transform="translate(-73.853 -51.322)"/>
        <path id="prefix__Path_35" fill="url(#prefix__linear-gradient-30)" d="M155.179 93c-.957 1.621-2.305 2.592-3.042 2.162s-.574-2.09.368-3.712 2.3-2.588 3.037-2.162.594 2.093-.363 3.712z" data-name="Path 35" transform="translate(-81.272 -50.483)"/>
        <path id="prefix__Path_36" fill="url(#prefix__linear-gradient-31)" d="M168.615 91.381c-.957 1.621-2.229 2.635-2.87 2.258s-.411-1.994.531-3.616 2.229-2.631 2.87-2.258.411 1.985-.531 3.616z" data-name="Path 36" transform="translate(-88.457 -49.695)"/>
        <path id="prefix__Path_37" fill="url(#prefix__linear-gradient-32)" d="M181.484 89.364c-.9 1.545-2.1 2.521-2.7 2.176s-.349-1.875.55-3.42 2.1-2.521 2.7-2.176.345 1.876-.55 3.42z" data-name="Path 37" transform="translate(-95.313 -48.743)"/>
        <path id="prefix__Path_38" fill="url(#prefix__linear-gradient-33)" d="M25.748 70.339c-.081 1.679-.679 3.008-1.339 2.98s-1.124-1.435-1.047-3.095.684-3 1.339-2.975 1.128 1.416 1.047 3.09z" data-name="Path 38" transform="translate(-13.957 -38.977)"/>
        <path id="prefix__Path_39" fill="url(#prefix__linear-gradient-34)" d="M32.376 68.006c-.091 1.913-.7 3.405-1.358 3.348s-1.138-1.569-1.033-3.458.7-3.405 1.358-3.348 1.1 1.569 1.033 3.458z" data-name="Path 39" transform="translate(-17.41 -37.562)"/>
        <path id="prefix__Path_40" fill="url(#prefix__linear-gradient-35)" d="M40.339 67.427c-.091 1.913-.694 3.4-1.354 3.348s-1.119-1.569-1-3.453.7-3.4 1.358-3.372 1.087 1.583.996 3.477z" data-name="Path 40" transform="translate(-21.58 -37.248)"/>
        <path id="prefix__Path_41" fill="url(#prefix__linear-gradient-36)" d="M49.157 66.629c-.158 1.913-.909 3.348-1.674 3.3s-1.263-1.645-1.1-3.53.909-3.348 1.674-3.3 1.258 1.64 1.1 3.53z" data-name="Path 41" transform="translate(-25.955 -36.802)"/>
        <path id="prefix__Path_42" fill="url(#prefix__linear-gradient-37)" d="M58.9 67.541c-.158 1.913-1.014 3.348-1.913 3.286s-1.5-1.669-1.339-3.558 1.014-3.348 1.913-3.281 1.502 1.664 1.339 3.553z" data-name="Path 42" transform="translate(-30.795 -37.267)"/>
        <path id="prefix__Path_43" fill="url(#prefix__linear-gradient-38)" d="M69.238 67.981c-.177 2.09-1.229 3.712-2.353 3.621s-1.913-1.87-1.717-3.965 1.229-3.712 2.353-3.621 1.889 1.87 1.717 3.965z" data-name="Path 43" transform="translate(-35.757 -37.283)"/>
        <path id="prefix__Path_44" fill="url(#prefix__linear-gradient-39)" d="M80.528 68.856c-.177 2.095-1.229 3.716-2.353 3.625s-1.913-1.87-1.717-3.965 1.229-3.716 2.353-3.616 1.908 1.866 1.717 3.956z" data-name="Path 44" transform="translate(-41.647 -37.745)"/>
        <path id="prefix__Path_45" fill="url(#prefix__linear-gradient-40)" d="M92.065 70.754c-.335 1.789-1.5 3.071-2.611 2.87s-1.736-1.822-1.4-3.606 1.5-3.071 2.607-2.87 1.734 1.831 1.404 3.606z" data-name="Path 45" transform="translate(-47.664 -38.914)"/>
        <path id="prefix__Path_46" fill="url(#prefix__linear-gradient-41)" d="M104.427 71.689c-.33 1.784-1.5 3.066-2.607 2.87s-1.736-1.822-1.406-3.611 1.507-3.066 2.611-2.87 1.737 1.822 1.402 3.611z" data-name="Path 46" transform="translate(-54.115 -39.403)"/>
        <path id="prefix__Path_47" fill="url(#prefix__linear-gradient-42)" d="M116.925 73.158c-.588 1.722-1.913 2.822-2.994 2.458s-1.435-2.052-.87-3.774 1.913-2.822 2.994-2.458 1.458 2.057.87 3.774z" data-name="Path 47" transform="translate(-60.619 -40.061)"/>
        <path id="prefix__Path_48" fill="url(#prefix__linear-gradient-43)" d="M129.652 73.6c-.923 1.564-2.363 2.43-3.219 1.913s-.808-2.181.11-3.75 2.363-2.43 3.219-1.913.808 2.177-.11 3.75z" data-name="Path 48" transform="translate(-67.719 -40.26)"/>
        <path id="prefix__Path_49" fill="url(#prefix__linear-gradient-44)" d="M142.037 74.606c-.918 1.564-2.358 2.43-3.214 1.913s-.808-2.181.11-3.75 2.363-2.43 3.219-1.913.803 2.181-.115 3.75z" data-name="Path 49" transform="translate(-74.214 -40.79)"/>
        <path id="prefix__Path_50" fill="url(#prefix__linear-gradient-45)" d="M155.847 74.233c-.923 1.569-2.258 2.492-2.989 2.066s-.574-2.047.344-3.616 2.258-2.492 2.989-2.066.574 2.042-.344 3.616z" data-name="Path 50" transform="translate(-81.65 -40.688)"/>
        <path id="prefix__Path_51" fill="url(#prefix__linear-gradient-46)" d="M168.242 73.506c-.918 1.569-2.253 2.492-2.985 2.066s-.574-2.047.344-3.616 2.258-2.492 2.985-2.061.565 2.042-.344 3.611z" data-name="Path 51" transform="translate(-88.15 -40.308)"/>
        <path id="prefix__Path_52" fill="url(#prefix__linear-gradient-47)" d="M181.931 72.123c-.918 1.569-2.152 2.549-2.76 2.2s-.349-1.913.569-3.482 2.157-2.549 2.76-2.2.354 1.913-.569 3.482z" data-name="Path 52" transform="translate(-95.512 -39.668)"/>
        <path id="prefix__Path_53" fill="url(#prefix__linear-gradient-48)" d="M20.138 48.8c.65 1.832.679 3.492.057 3.712s-1.655-1.081-2.305-2.908-.674-3.492-.053-3.712 1.651 1.087 2.301 2.908z" data-name="Path 53" transform="translate(-10.845 -27.767)"/>
        <path id="prefix__Path_54" fill="url(#prefix__linear-gradient-49)" d="M27.223 44.39c.416 1.913.23 3.544-.411 3.688S25.31 46.8 24.9 44.9s-.234-3.544.411-3.688 1.515 1.279 1.912 3.178z" data-name="Path 54" transform="translate(-14.649 -25.318)"/>
        <path id="prefix__Path_55" fill="url(#prefix__linear-gradient-50)" d="M35.065 41.64c.416 1.913.234 3.544-.411 3.688s-1.5-1.282-1.913-3.176-.23-3.549.411-3.692 1.511 1.281 1.913 3.18z" data-name="Path 55" transform="translate(-18.74 -23.876)"/>
        <path id="prefix__Path_56" fill="url(#prefix__linear-gradient-51)" d="M43.624 39.319c.244 1.913-.258 3.573-1.124 3.683s-1.755-1.368-1.994-3.3.263-3.573 1.124-3.683 1.754 1.373 1.994 3.3z" data-name="Path 56" transform="translate(-22.875 -22.601)"/>
        <path id="prefix__Path_57" fill="url(#prefix__linear-gradient-52)" d="M54.2 39.539c.5 2.143.153 4.056-.78 4.271s-2.085-1.344-2.588-3.5-.153-4.056.78-4.276S53.7 37.4 54.2 39.539z" data-name="Path 57" transform="translate(-28.173 -22.601)"/>
        <path id="prefix__Path_58" fill="url(#prefix__linear-gradient-53)" d="M65.522 40.664c.627 2.1.258 4.075-.827 4.4s-2.473-1.124-3.1-3.228-.263-4.08.823-4.405 2.473 1.123 3.104 3.233z" data-name="Path 58" transform="translate(-33.749 -23.319)"/>
        <path id="prefix__Path_59" fill="url(#prefix__linear-gradient-54)" d="M77.112 42.244c.631 2.1.263 4.075-.823 4.4s-2.473-1.124-3.1-3.233-.258-4.075.827-4.4 2.469 1.123 3.096 3.233z" data-name="Path 59" transform="translate(-39.795 -24.147)"/>
        <path id="prefix__Path_60" fill="url(#prefix__linear-gradient-55)" d="M89.835 46.1c.545 1.832.115 3.582-.957 3.908s-2.391-.9-2.956-2.736-.115-3.582.957-3.908 2.411.903 2.956 2.736z" data-name="Path 60" transform="translate(-46.473 -26.425)"/>
        <path id="prefix__Path_61" fill="url(#prefix__linear-gradient-56)" d="M102.936 48.986c-.234 1.913-1.334 3.348-2.458 3.185s-1.846-1.751-1.607-3.664 1.334-3.348 2.458-3.19 1.841 1.783 1.607 3.669z" data-name="Path 61" transform="translate(-53.331 -27.471)"/>
        <path id="prefix__Path_62" fill="url(#prefix__linear-gradient-57)" d="M116.133 52.334c-.536 1.684-1.846 2.774-2.922 2.43s-1.516-1.99-.957-3.673 1.846-2.774 2.922-2.43 1.493 1.989.957 3.673z" data-name="Path 62" transform="translate(-60.211 -29.196)"/>
        <path id="prefix__Path_63" fill="url(#prefix__linear-gradient-58)" d="M129.211 54.644c-.536 1.684-1.846 2.774-2.922 2.43s-1.521-1.99-.957-3.673 1.846-2.774 2.922-2.43 1.493 1.985.957 3.673z" data-name="Path 63" transform="translate(-67.334 -30.408)"/>
        <path id="prefix__Path_64" fill="url(#prefix__linear-gradient-59)" d="M142.566 55.806c-.5 1.574-1.665 2.607-2.6 2.31s-1.282-1.813-.78-3.386 1.66-2.611 2.6-2.315 1.283 1.813.78 3.391z" data-name="Path 64" transform="translate(-74.606 -31.171)"/>
        <path id="prefix__Path_65" fill="url(#prefix__linear-gradient-60)" d="M154.943 56.852c-.823 1.435-2.114 2.238-2.87 1.794s-.732-1.966.1-3.4 2.114-2.234 2.87-1.789.728 1.965-.1 3.395z" data-name="Path 65" transform="translate(-81.194 -31.678)"/>
        <path id="prefix__Path_66" fill="url(#prefix__linear-gradient-61)" d="M168.8 57.029c-.823 1.435-2.014 2.3-2.659 1.913s-.5-1.832.325-3.267 2.014-2.291 2.659-1.913.497 1.838-.325 3.267z" data-name="Path 66" transform="translate(-88.641 -31.857)"/>
        <path id="prefix__Path_67" fill="url(#prefix__linear-gradient-62)" d="M181.551 54.6c-.928 1.617-2.2 2.626-2.87 2.253s-.416-1.98.512-3.6 2.21-2.626 2.87-2.258.401 1.987-.512 3.605z" data-name="Path 67" transform="translate(-95.231 -30.415)"/>
        <path id="prefix__Path_68" fill="url(#prefix__linear-gradient-63)" d="M13.03 22.772c.957 1.822 1.258 3.549.674 3.855S11.9 25.7 10.94 23.881s-1.258-3.544-.674-3.826 1.808.909 2.764 2.717z" data-name="Path 68" transform="translate(-6.975 -14.174)"/>
        <path id="prefix__Path_69" fill="url(#prefix__linear-gradient-64)" d="M20.612 16.08c1.052 2 1.435 3.865.847 4.176s-1.913-1.071-2.961-3.071-1.435-3.869-.842-4.171 1.932 1.062 2.956 3.066z" data-name="Path 69" transform="translate(-10.84 -10.501)"/>
        <path id="prefix__Path_70" fill="url(#prefix__linear-gradient-65)" d="M31.592 11.938c.894 2.071.957 4.046.115 4.405s-2.234-1.028-3.133-3.1-.957-4.046-.115-4.405 2.233 1.029 3.133 3.1z" data-name="Path 70" transform="translate(-16.31 -8.315)"/>
        <path id="prefix__Path_71" fill="url(#prefix__linear-gradient-66)" d="M42.941 10.964c.918 2.114.909 4.152 0 4.549s-2.391-.99-3.324-3.1-.909-4.147 0-4.549 2.41.986 3.324 3.1z" data-name="Path 71" transform="translate(-22.082 -7.8)"/>
        <path id="prefix__Path_72" fill="url(#prefix__linear-gradient-67)" d="M55.869 11.91c1.019 2.348.957 4.639-.163 5.118s-2.826-1.038-3.826-3.386-.957-4.642.163-5.118 2.793 1.038 3.826 3.386z" data-name="Path 72" transform="translate(-28.467 -8.134)"/>
        <path id="prefix__Path_73" fill="url(#prefix__linear-gradient-68)" d="M69.179 15.42c1.019 2.344.957 4.639-.163 5.118S66.19 19.5 65.19 17.152s-.957-4.639.163-5.118 2.812 1.038 3.826 3.386z" data-name="Path 73" transform="translate(-35.411 -9.965)"/>
        <path id="prefix__Path_74" fill="url(#prefix__linear-gradient-69)" d="M83.68 19.63c.837 1.913.617 3.879-.478 4.357s-2.678-.694-3.515-2.626-.612-3.879.478-4.357 2.683.696 3.515 2.626z" data-name="Path 74" transform="translate(-43.082 -12.549)"/>
        <path id="prefix__Path_75" fill="url(#prefix__linear-gradient-70)" d="M97.9 24.186c.76 1.751.56 3.525-.445 3.96s-2.435-.636-3.19-2.391-.56-3.525.445-3.96 2.438.635 3.19 2.391z" data-name="Path 75" transform="translate(-50.715 -15.053)"/>
        <path id="prefix__Path_76" fill="url(#prefix__linear-gradient-71)" d="M112.785 29.522a2.491 2.491 0 1 1-4.9-.191 2.49 2.49 0 1 1 4.9.191z" data-name="Path 76" transform="translate(-58.059 -17.557)"/>
        <path id="prefix__Path_77" fill="url(#prefix__linear-gradient-72)" d="M126.853 33.764c-.311 1.717-1.65 2.913-2.98 2.669s-2.152-1.837-1.837-3.554 1.65-2.918 2.985-2.674 2.152 1.837 1.832 3.559z" data-name="Path 77" transform="translate(-65.701 -19.536)"/>
        <path id="prefix__Path_78" fill="url(#prefix__linear-gradient-73)" d="M141.087 36.851c-.478 1.6-1.717 2.64-2.8 2.325s-1.574-1.861-1.11-3.463 1.717-2.64 2.793-2.325 1.581 1.861 1.117 3.463z" data-name="Path 78" transform="translate(-73.582 -21.191)"/>
        <path id="prefix__Path_79" fill="url(#prefix__linear-gradient-74)" d="M154.66 38.647c-.655 1.526-1.875 2.473-2.717 2.109s-.985-1.913-.325-3.425 1.875-2.473 2.717-2.114.99 1.9.325 3.43z" data-name="Path 79" transform="translate(-81.024 -22.14)"/>
        <path id="prefix__Path_80" fill="url(#prefix__linear-gradient-75)" d="M168.592 39.46c-.66 1.531-1.774 2.521-2.492 2.21s-.76-1.8-.1-3.348 1.774-2.516 2.492-2.2.76 1.822.1 3.338z" data-name="Path 80" transform="translate(-88.534 -22.621)"/>
        <path id="prefix__Path_81" fill="url(#prefix__linear-gradient-76)" d="M181.539 38.22c-.7 1.617-1.846 2.678-2.564 2.368s-.727-1.87-.029-3.487 1.846-2.678 2.564-2.391.727 1.89.029 3.51z" data-name="Path 81" transform="translate(-95.295 -21.889)"/>
    </g>
</svg>
