<svg xmlns="http://www.w3.org/2000/svg" width="247.625" height="56.64" viewBox="0 0 247.625 56.64">
    <defs>
        <style>
            .prefix__cls-1{fill:#fff}
        </style>
    </defs>
    <g id="prefix__janus" transform="translate(.009 .005)">
        <path id="prefix__Path_1" d="M234.518 21v25.363q0 2.667-.142 4.543a19.474 19.474 0 0 1-.484 3.233 11.485 11.485 0 0 1-.822 2.329 10.177 10.177 0 0 1-1.18 1.817 13.232 13.232 0 0 1-5.393 4.142 16.556 16.556 0 0 1-6.471 1.365c-.193 0-.665 0-1.42-.059a14.244 14.244 0 0 1-2.7-.452A16.915 16.915 0 0 1 212.589 62a11.285 11.285 0 0 1-3.233-2.47 13.009 13.009 0 0 1-2.47-4.032 15.934 15.934 0 0 1-1-6.014H217.3c.035.492.094 1.019.169 1.573a6.257 6.257 0 0 0 .425 1.573 2.97 2.97 0 0 0 .94 1.219 2.706 2.706 0 0 0 1.7.484 2.844 2.844 0 0 0 1.872-.566 3.111 3.111 0 0 0 .964-1.392 6.591 6.591 0 0 0 .342-1.731c.035-.606.055-1.156.055-1.648V21z" class="prefix__cls-1" data-name="Path 1" transform="translate(-126.821 -15.811)"/>
        <path id="prefix__Path_2" d="M325.082 77.471h-9.44v-3.407h-.114a7.475 7.475 0 0 1-1.573 1.967 9 9 0 0 1-2.215 1.42 11.259 11.259 0 0 1-2.639.822 15.339 15.339 0 0 1-2.753.256 15.8 15.8 0 0 1-6.687-1.365 14.53 14.53 0 0 1-4.968-3.69 16.541 16.541 0 0 1-3.1-5.353 19.064 19.064 0 0 1-1.082-6.443 17.956 17.956 0 0 1 1.306-6.982 16.482 16.482 0 0 1 3.465-5.306 14.853 14.853 0 0 1 5.023-3.351 15.938 15.938 0 0 1 6.046-1.18 12.945 12.945 0 0 1 3.461.429 11.5 11.5 0 0 1 2.671 1.078 8.428 8.428 0 0 1 1.872 1.42 9.045 9.045 0 0 1 1.18 1.5h.114v-3.322h9.44zM299.932 61.8a8.44 8.44 0 0 0 .425 2.5 8.261 8.261 0 0 0 1.365 2.584 7.674 7.674 0 0 0 2.411 2.041 8.168 8.168 0 0 0 9.794-2.041 7.866 7.866 0 0 0 1.333-2.639 9.645 9.645 0 0 0 .393-2.557 8.735 8.735 0 0 0-.484-2.836 7.865 7.865 0 0 0-1.475-2.584 7.375 7.375 0 0 0-2.5-1.872 8.119 8.119 0 0 0-3.493-.712 7.36 7.36 0 0 0-3.489.767 7.7 7.7 0 0 0-2.415 1.967 8.06 8.06 0 0 0-1.42 2.612 9.093 9.093 0 0 0-.445 2.77z" class="prefix__cls-1" data-name="Path 2" transform="translate(-178.368 -30.467)"/>
        <path id="prefix__Path_3" d="M395.821 45.973h8.8v3.347h.114a13.53 13.53 0 0 1 .936-1.333 6.908 6.908 0 0 1 1.573-1.448 9.693 9.693 0 0 1 2.47-1.18 11.556 11.556 0 0 1 3.576-.484 13.373 13.373 0 0 1 4.512.787 10.91 10.91 0 0 1 3.54 1.927 15.569 15.569 0 0 1 1.278 1.333 7.674 7.674 0 0 1 1.18 1.967 14.8 14.8 0 0 1 .85 2.867 20.291 20.291 0 0 1 .342 4v19.7h-9.44v-17.2q0-.854-.083-1.967a6.5 6.5 0 0 0-.543-2.132 4.224 4.224 0 0 0-1.447-1.731 4.891 4.891 0 0 0-2.864-.708 5.238 5.238 0 0 0-3.123.787 4.791 4.791 0 0 0-1.573 1.817 5.936 5.936 0 0 0-.606 2.159c-.055.739-.083 1.353-.083 1.845V77.48h-9.44z" class="prefix__cls-1" data-name="Path 3" transform="translate(-242.463 -30.468)"/>
        <path id="prefix__Path_4" d="M513.919 79.177h-8.909v-3.351h-.11a6.922 6.922 0 0 1-1.762 2.384 8.062 8.062 0 0 1-2.155 1.306 8.433 8.433 0 0 1-2.242.57 20.161 20.161 0 0 1-2.014.11c-.5 0-1.117-.035-1.876-.11a11.651 11.651 0 0 1-2.439-.543 12.277 12.277 0 0 1-2.612-1.219 8.622 8.622 0 0 1-2.329-2.1 13.036 13.036 0 0 1-1.5-2.242 11.544 11.544 0 0 1-.854-2.156 11.769 11.769 0 0 1-.393-2.388c-.055-.85-.087-1.825-.087-2.923V47.67h9.44v17.437c0 .531.028 1.18.086 1.9a5.875 5.875 0 0 0 .539 2.073 4 4 0 0 0 1.5 1.644 5.334 5.334 0 0 0 2.927.681 6.411 6.411 0 0 0 1.986-.311 4.6 4.6 0 0 0 1.731-1.023 4.87 4.87 0 0 0 1.219-1.967 9.2 9.2 0 0 0 .456-3.119V47.682h9.44z" class="prefix__cls-1" data-name="Path 4" transform="translate(-296.738 -32.178)"/>
        <path id="prefix__Path_5" d="M586.659 54.886a3.457 3.457 0 0 0-.087-.653 1.9 1.9 0 0 0-.366-.787 2.427 2.427 0 0 0-.881-.653 3.82 3.82 0 0 0-1.617-.283 2.527 2.527 0 0 0-2.073.739 2.242 2.242 0 0 0-.6 1.361 2.315 2.315 0 0 0 1.479 2.073 19.522 19.522 0 0 0 3.347 1.333q1.99.566 3.973 1.219a13.847 13.847 0 0 1 3.54 1.731 8.512 8.512 0 0 1 2.537 2.718 8.26 8.26 0 0 1 .964 4.2 9.655 9.655 0 0 1-1.023 4.484 10.227 10.227 0 0 1-2.781 3.379 12.7 12.7 0 0 1-4.087 2.128 16.269 16.269 0 0 1-4.94.739 18.6 18.6 0 0 1-3.933-.456 12.143 12.143 0 0 1-3.973-1.644 10.7 10.7 0 0 1-4.921-8.327h9.354a3.316 3.316 0 0 0 .68 1.676 3.033 3.033 0 0 0 1.109.85 3.849 3.849 0 0 0 1.105.315c.338.039.566.055.68.055a4.162 4.162 0 0 0 2.242-.653 2.006 2.006 0 0 0 1.05-1.786 2.305 2.305 0 0 0-.452-1.479 4.477 4.477 0 0 0-1.448-1.078 22.5 22.5 0 0 0-2.584-1.078c-1.058-.393-2.36-.85-3.859-1.42a17.834 17.834 0 0 1-2.895-1.247 10.352 10.352 0 0 1-2.388-1.762 7.915 7.915 0 0 1-1.617-2.325 6.9 6.9 0 0 1-.594-2.9 9.186 9.186 0 0 1 .991-4.26 10.227 10.227 0 0 1 2.671-3.292 12.168 12.168 0 0 1 3.886-2.1 14.628 14.628 0 0 1 4.653-.739 18.311 18.311 0 0 1 3.54.393 11.752 11.752 0 0 1 3.776 1.479 10.557 10.557 0 0 1 3.147 3.009 10.206 10.206 0 0 1 1.648 5.051z" class="prefix__cls-1" data-name="Path 5" transform="translate(-349.268 -30.535)"/>
        <path id="prefix__Path_6" d="M312.15 143.551a.9.9 0 0 1-.169.6.759.759 0 0 1-.586.189.787.787 0 0 1-.59-.189.9.9 0 0 1-.165-.6v-3.214h-.787v3.422a1.339 1.339 0 0 0 .094.5 1.18 1.18 0 0 0 .283.425 1.369 1.369 0 0 0 .484.291 2.242 2.242 0 0 0 1.388 0 1.338 1.338 0 0 0 .484-.291 1.18 1.18 0 0 0 .283-.425 1.341 1.341 0 0 0 .094-.5v-3.422h-.787zm26.909-.189l-1.475-3.025h-.854v4.673h.712v-3.28l1.632 3.28h.7v-4.673h-.708zm5.971-2a.862.862 0 0 1 .3-.3.763.763 0 0 1 .362-.094.649.649 0 0 1 .578.275 1.774 1.774 0 0 1 .224.885h.787a2.6 2.6 0 0 0-.094-.7 1.693 1.693 0 0 0-.291-.6 1.432 1.432 0 0 0-.511-.413 1.612 1.612 0 0 0-.728-.153 1.462 1.462 0 0 0-.676.157 1.656 1.656 0 0 0-.551.464 2.359 2.359 0 0 0-.374.755 3.557 3.557 0 0 0-.138 1.034 4.325 4.325 0 0 0 .126 1.109 2.03 2.03 0 0 0 .346.747 1.353 1.353 0 0 0 .547.425 1.892 1.892 0 0 0 .72.13 1.6 1.6 0 0 0 .7-.138 1.4 1.4 0 0 0 .5-.393 1.675 1.675 0 0 0 .307-.574 2.753 2.753 0 0 0 .126-.72h-.79a3.723 3.723 0 0 1-.114.539.978.978 0 0 1-.173.338.567.567 0 0 1-.244.177.909.909 0 0 1-.323.051.716.716 0 0 1-.649-.393 1.829 1.829 0 0 1-.189-.523 3.785 3.785 0 0 1-.071-.787 3.437 3.437 0 0 1 .079-.787 1.729 1.729 0 0 1 .228-.515zm-14.4-1.023l-1.436 4.673h.826l.393-1.239h1.18l.393 1.239h.818l-1.452-4.673zm-.067 2.722l.393-1.507.393 1.507zm-5.943-.543a.586.586 0 0 0 .267-.1.83.83 0 0 0 .2-.208.786.786 0 0 0 .126-.271.921.921 0 0 0 .043-.283 1.4 1.4 0 0 0-.1-.547 1.061 1.061 0 0 0-.283-.393 1.279 1.279 0 0 0-.429-.248 1.7 1.7 0 0 0-.539-.094h-1.341v4.673h1.613a1.321 1.321 0 0 0 .5-.1 1.181 1.181 0 0 0 .393-.275 1.338 1.338 0 0 0 .267-.433 1.548 1.548 0 0 0 .094-.555 1.365 1.365 0 0 0-.193-.739.928.928 0 0 0-.615-.428zm-1.259-1.455h.441a.688.688 0 0 1 .48.149.546.546 0 0 1 .173.429.6.6 0 0 1-.142.429.684.684 0 0 1-.511.153h-.441zm1.243 2.871a.457.457 0 0 1-.138.216.59.59 0 0 1-.26.122 1.748 1.748 0 0 1-.413.039h-.433v-1.4h.393a1.058 1.058 0 0 1 .673.181.63.63 0 0 1 .216.511 1.04 1.04 0 0 1-.039.319zm-21.426-2.834h.944v3.933h.787V141.1h.948v-.747h-2.687zm86.143 0h.94v3.933h.787V141.1H392v-.747h-2.683zm7.454-.747l-1.436 4.673h.826l.393-1.239h1.18l.393 1.239h.818l-1.444-4.685zm-.067 2.722l.393-1.507.393 1.507zm6.931 1.239v-3.973h-.787v4.673h2.285v-.714zm-19.187.712h.787v-4.685h-.787zm-17.35-4.008a1.6 1.6 0 0 0-.531-.5 1.5 1.5 0 0 0-.739-.181h-1.573v4.673h1.349a1.9 1.9 0 0 0 .787-.157 1.6 1.6 0 0 0 .605-.453 2.151 2.151 0 0 0 .393-.736 3.334 3.334 0 0 0 .138-.991 3.587 3.587 0 0 0-.11-.916 2.459 2.459 0 0 0-.321-.743zm-.444 2.388a1.522 1.522 0 0 1-.22.5.937.937 0 0 1-.338.3.987.987 0 0 1-.437.094h-.6v-3.25h.582a.963.963 0 0 1 .429.09.845.845 0 0 1 .342.287 1.532 1.532 0 0 1 .22.5 2.938 2.938 0 0 1 .083.743 3.024 3.024 0 0 1-.063.728zm-12.308-2.494a1.623 1.623 0 0 0-.547-.48 1.52 1.52 0 0 0-1.947.48 2.32 2.32 0 0 0-.358.755 4.122 4.122 0 0 0 0 2.022 2.32 2.32 0 0 0 .358.755 1.52 1.52 0 0 0 1.947.48 1.623 1.623 0 0 0 .547-.48 2.237 2.237 0 0 0 .354-.755 4.123 4.123 0 0 0 0-2.022 2.238 2.238 0 0 0-.356-.759zm-.393 2.541a1.735 1.735 0 0 1-.2.527.881.881 0 0 1-.3.3.684.684 0 0 1-.708 0 .85.85 0 0 1-.3-.3 1.643 1.643 0 0 1-.2-.527 4.055 4.055 0 0 1 0-1.55 1.64 1.64 0 0 1 .2-.527.85.85 0 0 1 .3-.3.684.684 0 0 1 .708 0 .881.881 0 0 1 .3.3 1.734 1.734 0 0 1 .2.527 4.056 4.056 0 0 1-.002 1.546zm24.273-.2h1.156a1.545 1.545 0 0 1-.189.826.68.68 0 0 1-.618.3.838.838 0 0 1-.739-.393 2.474 2.474 0 0 1-.26-1.306 3.754 3.754 0 0 1 .067-.787 1.707 1.707 0 0 1 .189-.527.776.776 0 0 1 .692-.4.681.681 0 0 1 .515.216 1.384 1.384 0 0 1 .3.72h.787a2 2 0 0 0-.126-.641 1.573 1.573 0 0 0-.315-.523 1.457 1.457 0 0 0-.484-.354 1.684 1.684 0 0 0-1.971.527 2.233 2.233 0 0 0-.346.763 3.726 3.726 0 0 0-.122 1 4.107 4.107 0 0 0 .126 1.074 2.187 2.187 0 0 0 .358.751 1.5 1.5 0 0 0 .562.445 1.869 1.869 0 0 0 .743.142 1.672 1.672 0 0 0 .716-.138 1.322 1.322 0 0 0 .507-.393 1.731 1.731 0 0 0 .3-.61 3.08 3.08 0 0 0 .094-.787v-.614H378.2zm-6.471 1.762h.787v-4.673h-.787z" class="prefix__cls-1" data-name="Path 6" transform="translate(-186.654 -88.451)"/>
        <path id="prefix__Path_7" d="M6.318 31.378c.889 1.33 1.243 2.647.787 2.95s-1.534-.528-2.427-1.857-1.243-2.643-.787-2.946 1.534.543 2.427 1.853z" class="prefix__cls-1" data-name="Path 7" transform="translate(-3.7 -20.945)"/>
        <path id="prefix__Path_8" d="M20.544 89.894c-.716 1.428-1.613 2.423-2.006 2.226s-.13-1.51.582-2.938 1.617-2.427 2.006-2.23.134 1.514-.582 2.942z" class="prefix__cls-1" data-name="Path 8" transform="translate(-12.596 -55.981)"/>
        <path id="prefix__Path_9" d="M9.059 109c-1.208 1.046-2.415 1.628-2.706 1.3s.456-1.451 1.66-2.5 2.415-1.628 2.7-1.3-.45 1.451-1.654 2.5z" class="prefix__cls-1" data-name="Path 9" transform="translate(-5.277 -67.841)"/>
        <path id="prefix__Path_10" d="M19.569 110.312c-1.074 1.18-2.211 1.9-2.533 1.6s.283-1.491 1.353-2.675 2.211-1.9 2.537-1.6-.283 1.495-1.357 2.675z" class="prefix__cls-1" data-name="Path 10" transform="translate(-11.743 -68.547)"/>
        <path id="prefix__Path_11" d="M28.957 111.576c-1.153 1.267-2.435 1.967-2.867 1.573s.149-1.739 1.3-3.005 2.435-1.967 2.867-1.573-.151 1.739-1.3 3.005z" class="prefix__cls-1" data-name="Path 11" transform="translate(-17.201 -69.091)"/>
        <path id="prefix__Path_12" d="M38.365 112.43c-1.1 1.6-2.435 2.584-2.982 2.207s-.09-1.967 1.011-3.564 2.439-2.584 2.982-2.207.09 1.971-1.011 3.564z" class="prefix__cls-1" data-name="Path 12" transform="translate(-22.786 -69.293)"/>
        <path id="prefix__Path_13" d="M48.909 114.265c-.909 1.715-2.175 2.82-2.828 2.474s-.448-2.018.46-3.729 2.175-2.82 2.828-2.47.449 2.014-.46 3.725z" class="prefix__cls-1" data-name="Path 13" transform="translate(-29.184 -70.324)"/>
        <path id="prefix__Path_14" d="M60.055 115.523c-.9 1.715-2.317 2.753-3.147 2.3s-.787-2.191.134-3.9 2.321-2.753 3.147-2.3.775 2.188-.134 3.9z" class="prefix__cls-1" data-name="Path 14" transform="translate(-35.626 -70.959)"/>
        <path id="prefix__Path_15" d="M71.4 117.2c-.9 1.711-2.392 2.7-3.312 2.215s-.928-2.27-.024-3.981 2.392-2.706 3.312-2.218.931 2.276.024 3.984z" class="prefix__cls-1" data-name="Path 15" transform="translate(-42.343 -71.92)"/>
        <path id="prefix__Path_16" d="M83.305 118.823c-.909 1.711-2.392 2.7-3.312 2.215s-.932-2.277-.028-3.985 2.392-2.7 3.312-2.215.937 2.274.028 3.985z" class="prefix__cls-1" data-name="Path 16" transform="translate(-49.565 -72.955)"/>
        <path id="prefix__Path_17" d="M96.544 119.327c-.909 1.715-2.388 2.706-3.312 2.218s-.932-2.274-.024-3.985 2.392-2.706 3.312-2.215.916 2.271.024 3.982z" class="prefix__cls-1" data-name="Path 17" transform="translate(-57.596 -73.262)"/>
        <path id="prefix__Path_18" d="M110.717 119.086c-.909 1.711-2.336 2.753-3.186 2.281s-.787-2.207.1-3.933 2.333-2.753 3.182-2.281.813 2.23-.096 3.933z" class="prefix__cls-1" data-name="Path 18" transform="translate(-66.329 -73.151)"/>
        <path id="prefix__Path_19" d="M124.679 117.954c-.909 1.711-2.262 2.753-3.025 2.36s-.645-2.12.264-3.831 2.262-2.773 3.025-2.36.644 2.112-.264 3.831z" class="prefix__cls-1" data-name="Path 19" transform="translate(-75.198 -72.491)"/>
        <path id="prefix__Path_20" d="M139.043 115.466c-.909 1.711-2.144 2.832-2.753 2.506s-.393-1.967.527-3.69 2.144-2.836 2.753-2.51.382 1.979-.527 3.694z" class="prefix__cls-1" data-name="Path 20" transform="translate(-84.203 -71.079)"/>
        <path id="prefix__Path_21" d="M153.561 113.092c-.787 1.471-1.912 2.4-2.529 2.073s-.484-1.782.3-3.253 1.912-2.4 2.525-2.073.467 1.782-.296 3.253z" class="prefix__cls-1" data-name="Path 21" transform="translate(-93.149 -69.893)"/>
        <path id="prefix__Path_22" d="M167.095 110.134c-.787 1.471-1.833 2.439-2.36 2.163s-.311-1.691.468-3.147 1.837-2.443 2.36-2.163.31 1.676-.468 3.147z" class="prefix__cls-1" data-name="Path 22" transform="translate(-101.55 -68.167)"/>
        <path id="prefix__Path_23" d="M181 105.453c-.787 1.471-1.782 2.466-2.238 2.226s-.189-1.628.59-3.1 1.782-2.47 2.238-2.226.193 1.629-.59 3.1z" class="prefix__cls-1" data-name="Path 23" transform="translate(-110.132 -65.352)"/>
        <path id="prefix__Path_24" d="M28.772 89.894c-.712 1.428-1.613 2.423-2 2.226s-.134-1.51.582-2.938 1.613-2.427 2.006-2.23.14 1.514-.588 2.942z" class="prefix__cls-1" data-name="Path 24" transform="translate(-17.59 -55.981)"/>
        <path id="prefix__Path_25" d="M36.749 89.5c-.736 1.467-1.739 2.454-2.242 2.2s-.311-1.644.429-3.111 1.739-2.454 2.238-2.207.311 1.643-.425 3.118z" class="prefix__cls-1" data-name="Path 25" transform="translate(-22.224 -55.626)"/>
        <path id="prefix__Path_26" d="M45.765 90.042c-.787 1.573-1.923 2.565-2.549 2.254s-.5-1.833.279-3.395 1.923-2.565 2.549-2.25.504 1.829-.279 3.391z" class="prefix__cls-1" data-name="Path 26" transform="translate(-27.437 -55.78)"/>
        <path id="prefix__Path_27" d="M55.658 90.721c-.787 1.573-2 2.529-2.722 2.167s-.68-1.92.106-3.477 2-2.529 2.722-2.167.677 1.915-.106 3.477z" class="prefix__cls-1" data-name="Path 27" transform="translate(-33.262 -56.13)"/>
        <path id="prefix__Path_28" d="M66.448 91.674c-.7 1.6-1.927 2.6-2.753 2.242s-.913-1.943-.212-3.54 1.931-2.6 2.753-2.238.917 1.939.212 3.536z" class="prefix__cls-1" data-name="Path 28" transform="translate(-39.687 -56.677)"/>
        <path id="prefix__Path_29" d="M77.92 92.812c-.7 1.6-1.931 2.6-2.753 2.238s-.913-1.943-.212-3.54 1.931-2.6 2.753-2.242.913 1.947.212 3.544z" class="prefix__cls-1" data-name="Path 29" transform="translate(-46.647 -57.365)"/>
        <path id="prefix__Path_30" d="M89.377 93.833c-.7 1.6-1.931 2.6-2.753 2.242s-.917-1.947-.216-3.54 1.935-2.6 2.753-2.238.916 1.939.216 3.536z" class="prefix__cls-1" data-name="Path 30" transform="translate(-53.596 -57.99)"/>
        <path id="prefix__Path_31" d="M101.917 94.846c-.7 1.6-1.931 2.6-2.753 2.242s-.916-1.967-.216-3.54 1.935-2.6 2.753-2.238.916 1.939.216 3.536z" class="prefix__cls-1" data-name="Path 31" transform="translate(-61.203 -58.609)"/>
        <path id="prefix__Path_32" d="M114.8 94.846c-.7 1.6-1.931 2.6-2.753 2.242s-.913-1.967-.212-3.54 1.931-2.6 2.753-2.238.912 1.939.212 3.536z" class="prefix__cls-1" data-name="Path 32" transform="translate(-69.02 -58.609)"/>
        <path id="prefix__Path_33" d="M127.882 93.8c-.653 1.491-1.8 2.427-2.565 2.093s-.854-1.817-.2-3.308 1.8-2.423 2.569-2.093.853 1.797.196 3.308z" class="prefix__cls-1" data-name="Path 33" transform="translate(-77.346 -58.11)"/>
        <path id="prefix__Path_34" d="M140.716 94.02c-.751 1.294-1.943 2-2.667 1.573s-.7-1.805.055-3.1 1.943-2 2.667-1.573.696 1.81-.055 3.1z" class="prefix__cls-1" data-name="Path 34" transform="translate(-85.163 -58.333)"/>
        <path id="prefix__Path_35" d="M154.557 92.325c-.787 1.333-1.9 2.132-2.5 1.778s-.472-1.719.3-3.052 1.892-2.128 2.5-1.778.487 1.719-.3 3.052z" class="prefix__cls-1" data-name="Path 35" transform="translate(-93.778 -57.358)"/>
        <path id="prefix__Path_36" d="M168.041 90.725c-.787 1.333-1.833 2.167-2.36 1.857s-.338-1.64.437-2.974 1.833-2.163 2.36-1.857.338 1.633-.437 2.974z" class="prefix__cls-1" data-name="Path 36" transform="translate(-102.121 -56.444)"/>
        <path id="prefix__Path_37" d="M180.948 88.745c-.739 1.271-1.731 2.073-2.218 1.79s-.287-1.542.452-2.812 1.731-2.073 2.218-1.79.283 1.541-.452 2.812z" class="prefix__cls-1" data-name="Path 37" transform="translate(-110.083 -55.339)"/>
        <path id="prefix__Path_38" d="M25.322 69.79c-.067 1.381-.559 2.474-1.1 2.451s-.924-1.18-.861-2.545.562-2.47 1.1-2.447.928 1.165.861 2.541z" class="prefix__cls-1" data-name="Path 38" transform="translate(-15.628 -43.999)"/>
        <path id="prefix__Path_39" d="M31.948 67.392c-.075 1.573-.574 2.8-1.117 2.753s-.936-1.29-.85-2.844.574-2.8 1.117-2.753.902 1.29.85 2.844z" class="prefix__cls-1" data-name="Path 39" transform="translate(-19.642 -42.355)"/>
        <path id="prefix__Path_40" d="M39.917 66.809c-.075 1.573-.57 2.8-1.113 2.753s-.92-1.29-.826-2.84.574-2.8 1.117-2.773.897 1.302.822 2.86z" class="prefix__cls-1" data-name="Path 40" transform="translate(-24.491 -41.991)"/>
        <path id="prefix__Path_41" d="M48.658 66c-.13 1.573-.747 2.753-1.377 2.714s-1.038-1.353-.909-2.9.747-2.753 1.377-2.714 1.039 1.348.909 2.9z" class="prefix__cls-1" data-name="Path 41" transform="translate(-29.578 -41.473)"/>
        <path id="prefix__Path_42" d="M58.323 66.91c-.13 1.573-.834 2.753-1.573 2.7s-1.231-1.373-1.1-2.926.834-2.753 1.573-2.7 1.23 1.372 1.1 2.926z" class="prefix__cls-1" data-name="Path 42" transform="translate(-35.207 -42.014)"/>
        <path id="prefix__Path_43" d="M68.509 67.276c-.145 1.724-1.009 3.053-1.935 2.978S65 68.716 65.162 66.993s1.011-3.052 1.935-2.978 1.554 1.538 1.412 3.261z" class="prefix__cls-1" data-name="Path 43" transform="translate(-40.977 -42.032)"/>
        <path id="prefix__Path_44" d="M79.8 68.152c-.146 1.723-1.011 3.056-1.935 2.982s-1.573-1.538-1.412-3.261 1.011-3.056 1.935-2.978 1.569 1.538 1.412 3.257z" class="prefix__cls-1" data-name="Path 44" transform="translate(-47.826 -42.567)"/>
        <path id="prefix__Path_45" d="M91.336 70.11c-.275 1.471-1.235 2.525-2.148 2.36s-1.428-1.5-1.153-2.966 1.235-2.525 2.144-2.36 1.428 1.506 1.157 2.966z" class="prefix__cls-1" data-name="Path 45" transform="translate(-54.823 -43.926)"/>
        <path id="prefix__Path_46" d="M103.7 71.045c-.271 1.467-1.235 2.521-2.144 2.36s-1.428-1.5-1.156-2.97 1.239-2.521 2.148-2.36 1.426 1.498 1.152 2.97z" class="prefix__cls-1" data-name="Path 46" transform="translate(-62.324 -44.493)"/>
        <path id="prefix__Path_47" d="M116.191 72.475c-.484 1.416-1.573 2.321-2.462 2.022s-1.18-1.687-.716-3.1 1.573-2.321 2.462-2.022 1.2 1.688.716 3.1z" class="prefix__cls-1" data-name="Path 47" transform="translate(-69.888 -45.258)"/>
        <path id="prefix__Path_48" d="M128.971 72.9c-.759 1.286-1.943 2-2.647 1.573s-.665-1.794.09-3.084 1.943-2 2.647-1.573.666 1.797-.09 3.084z" class="prefix__cls-1" data-name="Path 48" transform="translate(-78.04 -45.489)"/>
        <path id="prefix__Path_49" d="M141.357 73.914c-.755 1.286-1.939 2-2.643 1.573s-.665-1.794.09-3.084 1.943-2 2.647-1.573.662 1.793-.094 3.084z" class="prefix__cls-1" data-name="Path 49" transform="translate(-85.582 -46.104)"/>
        <path id="prefix__Path_50" d="M155.234 73.572c-.759 1.29-1.857 2.049-2.458 1.7s-.472-1.684.283-2.974 1.857-2.049 2.458-1.7.472 1.68-.283 2.974z" class="prefix__cls-1" data-name="Path 50" transform="translate(-94.216 -45.986)"/>
        <path id="prefix__Path_51" d="M167.63 72.846c-.755 1.29-1.853 2.049-2.454 1.7s-.472-1.684.283-2.974 1.857-2.049 2.454-1.7.464 1.683-.283 2.974z" class="prefix__cls-1" data-name="Path 51" transform="translate(-101.764 -45.545)"/>
        <path id="prefix__Path_52" d="M181.382 71.492c-.755 1.29-1.77 2.1-2.27 1.805s-.287-1.573.468-2.864 1.774-2.1 2.27-1.805.291 1.572-.468 2.864z" class="prefix__cls-1" data-name="Path 52" transform="translate(-110.313 -44.802)"/>
        <path id="prefix__Path_53" d="M19.65 48.281c.535 1.507.559 2.871.047 3.052s-1.361-.889-1.9-2.392-.555-2.871-.043-3.052 1.361.893 1.896 2.392z" class="prefix__cls-1" data-name="Path 53" transform="translate(-12.008 -30.983)"/>
        <path id="prefix__Path_54" d="M26.771 43.823c.342 1.573.189 2.915-.338 3.033S25.2 45.8 24.86 44.24s-.193-2.915.338-3.033 1.247 1.055 1.573 2.616z" class="prefix__cls-1" data-name="Path 54" transform="translate(-16.431 -28.139)"/>
        <path id="prefix__Path_55" d="M34.613 41.073c.342 1.573.193 2.915-.338 3.033s-1.235-1.054-1.573-2.612-.189-2.919.338-3.037 1.242 1.055 1.573 2.616z" class="prefix__cls-1" data-name="Path 55" transform="translate(-21.189 -26.465)"/>
        <path id="prefix__Path_56" d="M43.059 38.733c.2 1.573-.212 2.938-.924 3.029s-1.444-1.125-1.64-2.71.216-2.938.924-3.029 1.443 1.125 1.64 2.71z" class="prefix__cls-1" data-name="Path 56" transform="translate(-25.997 -24.985)"/>
        <path id="prefix__Path_57" d="M53.558 38.913c.413 1.762.126 3.336-.641 3.513s-1.715-1.105-2.128-2.875-.126-3.336.641-3.517 1.719 1.117 2.128 2.879z" class="prefix__cls-1" data-name="Path 57" transform="translate(-32.157 -24.985)"/>
        <path id="prefix__Path_58" d="M64.771 40.081c.515 1.731.212 3.351-.68 3.619s-2.034-.924-2.549-2.655-.216-3.355.677-3.623 2.032.925 2.552 2.659z" class="prefix__cls-1" data-name="Path 58" transform="translate(-38.642 -25.818)"/>
        <path id="prefix__Path_59" d="M76.36 41.661c.519 1.731.216 3.351-.677 3.619s-2.034-.924-2.553-2.659-.212-3.351.68-3.619 2.034.925 2.55 2.659z" class="prefix__cls-1" data-name="Path 59" transform="translate(-45.672 -26.78)"/>
        <path id="prefix__Path_60" d="M89.1 45.6c.448 1.507.094 2.946-.787 3.214s-1.967-.739-2.431-2.25-.094-2.946.787-3.214 1.98.75 2.431 2.25z" class="prefix__cls-1" data-name="Path 60" transform="translate(-53.438 -29.425)"/>
        <path id="prefix__Path_61" d="M102.205 48.332c-.193 1.573-1.1 2.753-2.022 2.62s-1.518-1.44-1.322-3.013 1.1-2.753 2.022-2.624 1.517 1.467 1.322 3.017z" class="prefix__cls-1" data-name="Path 61" transform="translate(-61.413 -30.639)"/>
        <path id="prefix__Path_62" d="M115.4 51.67c-.441 1.385-1.518 2.281-2.4 2s-1.247-1.636-.787-3.021 1.518-2.281 2.4-2 1.229 1.637.787 3.021z" class="prefix__cls-1" data-name="Path 62" transform="translate(-69.412 -32.643)"/>
        <path id="prefix__Path_63" d="M128.478 53.98c-.441 1.385-1.518 2.281-2.4 2s-1.251-1.636-.787-3.021 1.518-2.281 2.4-2 1.228 1.633.787 3.021z" class="prefix__cls-1" data-name="Path 63" transform="translate(-77.593 -34.049)"/>
        <path id="prefix__Path_64" d="M141.926 55.195c-.413 1.294-1.369 2.144-2.136 1.9s-1.054-1.491-.641-2.785 1.365-2.148 2.136-1.9 1.054 1.49.641 2.785z" class="prefix__cls-1" data-name="Path 64" transform="translate(-86.037 -34.936)"/>
        <path id="prefix__Path_65" d="M154.337 56.227c-.677 1.18-1.739 1.841-2.36 1.475s-.6-1.617.079-2.8 1.739-1.837 2.36-1.471.601 1.62-.079 2.796z" class="prefix__cls-1" data-name="Path 65" transform="translate(-93.687 -35.525)"/>
        <path id="prefix__Path_66" d="M168.255 56.433c-.677 1.18-1.656 1.888-2.187 1.573s-.413-1.507.267-2.687 1.656-1.884 2.187-1.573.409 1.511-.267 2.687z" class="prefix__cls-1" data-name="Path 66" transform="translate(-102.335 -35.732)"/>
        <path id="prefix__Path_67" d="M180.974 53.946c-.763 1.33-1.813 2.159-2.36 1.853s-.342-1.628.421-2.958 1.817-2.159 2.36-1.857.331 1.632-.421 2.962z" class="prefix__cls-1" data-name="Path 67" transform="translate(-109.987 -34.058)"/>
        <path id="prefix__Path_68" d="M12.486 22.282c.787 1.5 1.034 2.919.555 3.17s-1.487-.759-2.274-2.258-1.035-2.915-.555-3.147 1.488.748 2.274 2.235z" class="prefix__cls-1" data-name="Path 68" transform="translate(-7.508 -15.212)"/>
        <path id="prefix__Path_69" d="M20.037 15.528c.865 1.644 1.18 3.178.7 3.434s-1.573-.881-2.435-2.525-1.18-3.182-.692-3.43 1.59.873 2.427 2.521z" class="prefix__cls-1" data-name="Path 69" transform="translate(-12.003 -10.941)"/>
        <path id="prefix__Path_70" d="M30.929 11.377c.736 1.7.787 3.328.094 3.623s-1.837-.846-2.576-2.549-.787-3.328-.094-3.623 1.837.846 2.576 2.549z" class="prefix__cls-1" data-name="Path 70" transform="translate(-18.363 -8.399)"/>
        <path id="prefix__Path_71" d="M42.228 10.4c.755 1.739.747 3.414 0 3.741s-1.967-.814-2.734-2.549-.747-3.41 0-3.741 1.983.811 2.734 2.549z" class="prefix__cls-1" data-name="Path 71" transform="translate(-25.075 -7.8)"/>
        <path id="prefix__Path_72" d="M55.033 11.293c.838 1.931.787 3.815-.134 4.209s-2.325-.854-3.147-2.785-.787-3.815.134-4.209 2.298.854 3.147 2.785z" class="prefix__cls-1" data-name="Path 72" transform="translate(-32.5 -8.189)"/>
        <path id="prefix__Path_73" d="M68.343 14.8c.838 1.927.787 3.815-.134 4.209s-2.325-.854-3.147-2.785-.787-3.815.134-4.209 2.314.857 3.147 2.785z" class="prefix__cls-1" data-name="Path 73" transform="translate(-40.575 -10.318)"/>
        <path id="prefix__Path_74" d="M82.881 19.144c.688 1.573.507 3.19-.393 3.583s-2.2-.57-2.891-2.159-.5-3.19.393-3.583 2.21.574 2.891 2.159z" class="prefix__cls-1" data-name="Path 74" transform="translate(-49.495 -13.322)"/>
        <path id="prefix__Path_75" d="M97.177 23.744c.625 1.44.46 2.9-.366 3.257s-2-.523-2.624-1.967-.46-2.9.366-3.257 2.002.523 2.624 1.967z" class="prefix__cls-1" data-name="Path 75" transform="translate(-58.371 -16.234)"/>
        <path id="prefix__Path_76" d="M111.915 28.985a2.048 2.048 0 1 1-4.028-.157 2.048 2.048 0 1 1 4.028.157z" class="prefix__cls-1" data-name="Path 76" transform="translate(-66.91 -19.146)"/>
        <path id="prefix__Path_77" d="M125.985 33.127a2.08 2.08 0 1 1-3.961-.728 2.081 2.081 0 1 1 3.961.728z" class="prefix__cls-1" data-name="Path 77" transform="translate(-75.696 -21.426)"/>
        <path id="prefix__Path_78" d="M140.362 36.226c-.393 1.314-1.412 2.171-2.3 1.912s-1.294-1.53-.913-2.848 1.412-2.171 2.3-1.912 1.295 1.53.913 2.848z" class="prefix__cls-1" data-name="Path 78" transform="translate(-84.848 -23.348)"/>
        <path id="prefix__Path_79" d="M154.046 38.025c-.539 1.255-1.542 2.034-2.234 1.735s-.81-1.573-.267-2.816 1.542-2.034 2.234-1.739.814 1.561.267 2.82z" class="prefix__cls-1" data-name="Path 79" transform="translate(-93.49 -24.451)"/>
        <path id="prefix__Path_80" d="M168.049 38.856c-.543 1.259-1.459 2.073-2.049 1.817s-.625-1.479-.083-2.753 1.459-2.069 2.049-1.813.626 1.502.083 2.749z" class="prefix__cls-1" data-name="Path 80" transform="translate(-102.211 -25.008)"/>
        <path id="prefix__Path_81" d="M180.987 37.588c-.574 1.33-1.518 2.2-2.108 1.947s-.6-1.538-.024-2.867 1.518-2.2 2.108-1.967.598 1.557.024 2.887z" class="prefix__cls-1" data-name="Path 81" transform="translate(-110.062 -24.158)"/>
    </g>
</svg>
