<svg xmlns="http://www.w3.org/2000/svg" width="30.472" height="25.435" viewBox="0 0 30.472 25.435">
    <defs>
        <style>
            .cls-1{stroke:#000;stroke-width:.5px}
        </style>
    </defs>
    <g id="mail_3_" data-name="mail (3)" transform="translate(.25 .251)">
        <path id="Path_202" d="M405.592 56.265a.439.439 0 0 0 .439-.439v-4.039a.439.439 0 0 0-.439-.439h-.524a.439.439 0 1 0 0 .878h.085v3.6a.439.439 0 0 0 .439.439zm0 0" class="cls-1" data-name="Path 202" transform="translate(-380.943 -48.342)"/>
        <path id="Path_203" d="M25.766.01a.439.439 0 1 0-.183.859 4.444 4.444 0 1 1-1.865 0 .439.439 0 1 0-.184-.859 5.326 5.326 0 0 0-4.206 5.2q0 .209.016.414H1.391A1.393 1.393 0 0 0 0 7.018v16.524a1.392 1.392 0 0 0 1.391 1.391h24.215A1.392 1.392 0 0 0 27 23.543v-7.237a.439.439 0 1 0-.878 0v6.334l-9.374-7.36 6.338-4.98a5.36 5.36 0 0 0 3.033.028v3.926a.439.439 0 1 0 .878 0V9.99A5.322 5.322 0 0 0 25.766.01zM10.252 15.281L.878 22.64V7.921zm15.831 8.448a.514.514 0 0 1-.476.327H1.39a.514.514 0 0 1-.476-.327l10.05-7.89 1.7 1.332a1.357 1.357 0 0 0 1.68 0l1.7-1.332zM13.8 16.48a.481.481 0 0 1-.595 0L.914 6.833a.515.515 0 0 1 .477-.327h18.1a5.315 5.315 0 0 0 2.669 3.411zm0 0" class="cls-1" data-name="Path 203"/>
    </g>
</svg>
