<svg xmlns="http://www.w3.org/2000/svg" width="29.809" height="22.706" viewBox="0 0 29.809 22.706">
    <g data-name="mail (1)">
        <g data-name="Group 141">
            <path d="M27.189 61H2.62A2.624 2.624 0 0 0 0 63.62v17.466a2.624 2.624 0 0 0 2.62 2.62h24.569a2.624 2.624 0 0 0 2.62-2.62V63.62a2.624 2.624 0 0 0-2.62-2.62zm-.362 1.747L14.96 74.614 2.99 62.747zM1.747 80.724V63.973l8.412 8.339zm1.235 1.235l8.418-8.417 2.949 2.924a.873.873 0 0 0 1.232 0l2.876-2.876 8.371 8.371zm25.08-1.235l-8.371-8.371 8.371-8.371z" data-name="Path 198" transform="translate(0 -61)"/>
        </g>
    </g>
</svg>
