<svg xmlns="http://www.w3.org/2000/svg" width="25.028" height="29.76" viewBox="0 0 25.028 29.76">
    <g>
        <path d="M38.682 49.105a.784.784 0 1 0 .784.783.784.784 0 0 0-.784-.783z" data-name="Path 199" transform="translate(-29.055 -22.451)"/>
        <path d="M54.083 36.78a6.41 6.41 0 0 0-5.775-6.369v-5.945a2.017 2.017 0 0 0-2.015-2.015H31.07a2.017 2.017 0 0 0-2.015 2.015V50.2a2.017 2.017 0 0 0 2.015 2.015h15.224a2.017 2.017 0 0 0 2.015-2.015v-7.051a6.41 6.41 0 0 0 5.775-6.369zm-12.8 0a6.41 6.41 0 0 0 5.775 6.369v4.333h-16.75v-21.4h16.747v4.328a6.41 6.41 0 0 0-5.773 6.369zM31.07 23.7h15.224a.762.762 0 0 1 .761.761v.361H30.308v-.361a.762.762 0 0 1 .762-.761zm15.224 27.256H31.07a.762.762 0 0 1-.761-.761v-1.461h16.746V50.2a.762.762 0 0 1-.761.761zm1.388-9.028a5.148 5.148 0 1 1 5.148-5.148 5.148 5.148 0 0 1-5.148 5.147z" data-name="Path 200" transform="translate(-29.055 -22.451)"/>
        <path d="M48.47 38.863h-.133V33.77a.626.626 0 0 0-.975-.522l-.815.548a.627.627 0 0 0 .537 1.118v3.949h-.19a.627.627 0 1 0 0 1.253h1.576a.627.627 0 1 0 0-1.253z" data-name="Path 201" transform="translate(-29.055 -22.451)"/>
    </g>
</svg>
