<svg xmlns="http://www.w3.org/2000/svg" width="29.808" height="29.808" viewBox="0 0 29.808 29.808">
    <g>
        <path d="M27.63 29.808h-6.826a2.176 2.176 0 0 1-2.174-2.173v-4.347a2.176 2.176 0 0 1 2.174-2.174h6.826a2.176 2.176 0 0 1 2.174 2.174v4.347a2.176 2.176 0 0 1-2.174 2.173zm-6.831-6.831a.311.311 0 0 0-.311.311v4.347a.311.311 0 0 0 .311.311h6.831a.311.311 0 0 0 .311-.311v-4.347a.311.311 0 0 0-.311-.311z" data-name="Path 183" transform="translate(0 -.001)"/>
        <path d="M26.393 22.977h-4.347a.932.932 0 0 1-.932-.931v-2.795a3.105 3.105 0 1 1 6.21 0v2.795a.932.932 0 0 1-.931.931zm-3.416-1.863h2.484v-1.863a1.242 1.242 0 1 0-2.484 0z" data-name="Path 184" transform="translate(0 -.001)"/>
        <path d="M10.557 26.082a.853.853 0 0 1-.178-.017A13.526 13.526 0 0 1 0 12.333V4.657a.93.93 0 0 1 .595-.868L10.221.063a.935.935 0 0 1 .672 0l9.626 3.726a.929.929 0 0 1 .6.868v7.676A16.4 16.4 0 0 1 21 14.358a.931.931 0 1 1-1.848-.225 14.728 14.728 0 0 0 .1-1.8V5.3l-8.695-3.369L1.863 5.3v7.037c0 9.383 7.388 11.553 8.688 11.863a12.264 12.264 0 0 0 4.132-2 .932.932 0 1 1 1.112 1.5 13.656 13.656 0 0 1-5.061 2.365.767.767 0 0 1-.176.019z" data-name="Path 185" transform="translate(0 -.001)"/>
    </g>
</svg>
