<svg id="Capa_1" data-name="Capa 1" xmlns="http://www.w3.org/2000/svg" viewBox="0 0 42.35 42.32"><defs><style>.cls-1{fill:#ffffff;}</style></defs><title>technical-support-1</title><path id="prefix_technical-support" data-name="prefix  technical-support" class="cls-1" d="M39.29,16.17V12.46a9.17,9.17,0,0,0-4.73-8,3.6,3.6,0,0,0-2.87-3.3,49.38,49.38,0,0,0-21,0,3.63,3.63,0,0,0-2.88,3.3A9.34,9.34,0,0,0,4.47,7.59a9.14,9.14,0,0,0-1.41,4.87v3.71a7.36,7.36,0,0,0-3.06,6v2.73a7.37,7.37,0,0,0,7.36,7.36h.5a1.23,1.23,0,0,0,1.6.72,1.22,1.22,0,0,0,.8-1.17V15.23a1.24,1.24,0,0,0-2.4-.45h-.5A7.5,7.5,0,0,0,5.54,15V12.46A6.66,6.66,0,0,1,8.48,6.93a3.76,3.76,0,0,0,.62.64,3.55,3.55,0,0,0,2.29.84,3.35,3.35,0,0,0,.71-.07,46.53,46.53,0,0,1,18.14,0,3.57,3.57,0,0,0,3-.76,3.76,3.76,0,0,0,.61-.65,6.68,6.68,0,0,1,2.94,5.54V15A7.38,7.38,0,0,0,35,14.78h-.5a1.24,1.24,0,0,0-2.4.45V31.78A1.24,1.24,0,0,0,33.31,33a1.22,1.22,0,0,0,1.17-.8H35a7.21,7.21,0,0,0,1.8-.22,5.87,5.87,0,0,1-5.84,5.35H26.26a3.74,3.74,0,0,0-3.51-2.48H19.52a3.72,3.72,0,0,0,0,7.44h3.23a3.71,3.71,0,0,0,3.5-2.48h4.68a8.36,8.36,0,0,0,8.36-8.35v-.65a7.35,7.35,0,0,0,3.06-6V22.14A7.36,7.36,0,0,0,39.29,16.17ZM7.78,17.26V29.75H7.36a4.89,4.89,0,0,1-4.88-4.88V22.14a4.9,4.9,0,0,1,4.88-4.88ZM32.09,4.77a1.15,1.15,0,0,1-1.15,1.15.9.9,0,0,1-.23,0,49,49,0,0,0-19.08,0A1.16,1.16,0,0,1,10.28,5a.86.86,0,0,1,0-.22V4.7a1.12,1.12,0,0,1,.91-1.13,46.52,46.52,0,0,1,20,0,1.13,1.13,0,0,1,.92,1.13ZM22.75,39.84H19.52a1.24,1.24,0,0,1,0-2.48h3.23a1.24,1.24,0,0,1,.07,2.48Zm17.12-15A4.89,4.89,0,0,1,35,29.75h-.41V17.26H35a4.89,4.89,0,0,1,4.88,4.88Z" transform="translate(0 0)"/></svg>