<svg id="Capa_4" data-name="Capa 4" xmlns="http://www.w3.org/2000/svg" viewBox="0 0 42.4 35.33"><defs><style>.cls-1{fill:#ffffff;}</style></defs><title>transfer-1</title><g id="prefix_transfer" data-name="prefix  transfer"><path id="prefix_Path_145" data-name="prefix  Path 145" class="cls-1" d="M9.72,22.43a.91.91,0,0,1-.63-.25L.26,13.35a.88.88,0,0,1,0-1.25L9.09,3.27a.88.88,0,0,1,1.51.62V8.3H28.27A1.76,1.76,0,0,1,30,10.07v5.3a1.76,1.76,0,0,1-1.76,1.76H10.6v4.42a.88.88,0,0,1-.54.82A1,1,0,0,1,9.72,22.43ZM2.13,12.72l6.7,6.7V16.25a.89.89,0,0,1,.89-.88H28.27v-5.3H9.72a.88.88,0,0,1-.88-.89V6Z" transform="translate(0 -3.01)"/><path id="prefix_Path_146" data-name="prefix  Path 146" class="cls-1" d="M32.69,38.34a.8.8,0,0,1-.34-.07.88.88,0,0,1-.54-.82V33H14.14a1.77,1.77,0,0,1-1.77-1.77V26a1.77,1.77,0,0,1,1.77-1.77H31.8V19.79a.88.88,0,0,1,1.51-.63L42.15,28a.88.88,0,0,1,0,1.24l-8.83,8.85A.93.93,0,0,1,32.69,38.34ZM14.14,26v5.3H32.69a.88.88,0,0,1,.88.88v3.17l6.71-6.7-6.71-6.7v3.17a.88.88,0,0,1-.88.88Z" transform="translate(0 -3.01)"/></g></svg>