<svg xmlns="http://www.w3.org/2000/svg" width="34.812" height="28.285" viewBox="0 0 34.812 28.285">
    <g id="prefix__twitter" transform="translate(0 -48)">
        <g id="prefix__Group_50" data-name="Group 50" transform="translate(0 48)">
            <path id="prefix__Path_147" fill="#00a7f6" d="M34.812 51.349a14.88 14.88 0 0 1-4.112 1.127 7.1 7.1 0 0 0 3.14-3.945 14.263 14.263 0 0 1-4.526 1.728 7.136 7.136 0 0 0-12.345 4.88 7.349 7.349 0 0 0 .165 1.627A20.2 20.2 0 0 1 2.424 49.3a7.139 7.139 0 0 0 2.193 9.54 7.048 7.048 0 0 1-3.224-.879v.078a7.17 7.17 0 0 0 5.717 7.013 7.123 7.123 0 0 1-1.871.235 6.31 6.31 0 0 1-1.351-.122 7.2 7.2 0 0 0 6.669 4.972 14.34 14.34 0 0 1-8.849 3.043A13.367 13.367 0 0 1 0 73.082a20.092 20.092 0 0 0 10.948 3.2c13.133 0 20.313-10.879 20.313-20.309 0-.315-.011-.62-.026-.923a14.238 14.238 0 0 0 3.577-3.701z" data-name="Path 147" transform="translate(0 -48)"/>
        </g>
    </g>
</svg>
