<svg xmlns="http://www.w3.org/2000/svg" width="29.809" height="29.809" viewBox="0 0 29.809 29.809">
    <path d="M29.547 12.121a.873.873 0 0 0-.858-.71H14.9a.873.873 0 0 0-.873.873v5.24a.873.873 0 0 0 .873.873h7.041a8.031 8.031 0 0 1-2.207 2.716.873.873 0 0 0-.214.157l-.019.021a7.787 7.787 0 0 1-4.6 1.531 7.918 7.918 0 0 1 0-15.836 7.819 7.819 0 0 1 4.713 1.632.873.873 0 0 0 1.142-.081l3.727-3.727a.874.874 0 0 0-.056-1.287 14.876 14.876 0 1 0 1 21.9 14.844 14.844 0 0 0 4.12-13.306zM14.9 1.747a13.064 13.064 0 0 1 7.648 2.528l-2.507 2.511A9.445 9.445 0 0 0 14.9 5.24a9.591 9.591 0 0 0-6.814 2.846 9.814 9.814 0 0 0-1.71 2.295L3.819 7.823A13.159 13.159 0 0 1 14.9 1.747zM2.945 9.42l2.7 2.7a9.611 9.611 0 0 0 0 5.558l-2.7 2.7a13.143 13.143 0 0 1 0-10.968zm.873 12.565l2.557-2.557a9.814 9.814 0 0 0 1.71 2.295 9.591 9.591 0 0 0 6.815 2.846 9.419 9.419 0 0 0 5.155-1.528l2.534 2.534a13.142 13.142 0 0 1-18.775-3.59zm20.126 2.471l-2.5-2.5a9.834 9.834 0 0 0 2.625-4.168.873.873 0 0 0-.833-1.136h-7.458v-3.494h12.168a13.146 13.146 0 0 1-4 11.3z"/>
</svg>
